<svg version="1.1" id="Layer_1" xmlns="http://www.w3.org/2000/svg" xmlns:xlink="http://www.w3.org/1999/xlink" x="0px" y="0px"
	 width="100%" viewBox="0 0 1080 566" enable-background="new 0 0 1080 566" xml:space="preserve">
<path fill="#000000" opacity="1.000000" stroke="none" 
	d="
M788.000000,567.000000 
	C525.333435,567.000000 263.166809,567.000000 1.000176,567.000000 
	C1.000117,378.333466 1.000117,189.666931 1.000059,1.000302 
	C360.999756,1.000202 720.999512,1.000202 1080.999512,1.000101 
	C1080.999634,189.666367 1080.999634,378.332733 1080.999756,566.999512 
	C983.500000,567.000000 886.000000,567.000000 788.000000,567.000000 
M949.006470,152.593704 
	C950.063171,152.753326 951.119812,152.912949 952.598816,153.039291 
	C952.598816,153.039291 953.012695,152.949158 953.567200,153.606384 
	C953.898865,155.990753 954.230591,158.375137 954.619019,161.167221 
	C958.756104,159.719864 961.818604,158.429276 965.000244,157.590820 
	C968.969238,156.544907 968.734741,154.336960 967.488281,151.445129 
	C965.231384,151.787186 963.317322,152.077286 961.232300,152.393280 
	C961.232300,147.094803 961.232300,142.233994 961.232300,137.346497 
	C963.626709,137.346497 965.560974,137.346497 967.757141,137.346497 
	C968.109802,139.497055 968.312378,141.460648 968.767639,143.363815 
	C969.879761,148.013596 970.678467,152.817230 972.517944,157.172668 
	C973.186829,158.756485 977.810608,160.524261 978.293945,160.010498 
	C980.359741,157.814362 981.955383,154.921677 982.853271,152.014572 
	C983.181580,150.951492 981.098206,149.143555 979.577026,146.872116 
	C978.702881,150.208481 978.219849,152.052277 977.736755,153.896088 
	C977.203125,153.930740 976.669556,153.965393 976.135925,154.000061 
	C975.303345,148.559509 974.470764,143.118958 973.599060,137.422684 
	C977.055298,137.123322 979.446045,136.916229 982.205933,136.677170 
	C982.024292,134.608658 981.875793,132.918350 981.733215,131.294693 
	C978.720947,131.094315 976.281799,130.932068 973.519836,130.748337 
	C973.519836,126.600410 972.732117,122.571587 973.844482,119.162781 
	C974.420593,117.397270 978.363220,116.730339 980.771240,115.573662 
	C979.333496,111.839417 977.157288,110.768021 973.348694,111.989220 
	C969.107178,113.349289 964.672974,114.474365 960.254517,114.812698 
	C955.950500,115.142281 954.285583,116.848846 954.120789,120.982796 
	C953.704773,121.008347 953.288696,121.033897 952.242188,120.758148 
	C950.984985,120.047653 949.727844,119.337166 948.512329,118.650223 
	C943.871826,124.777885 943.871826,124.777885 940.761780,124.884628 
	C942.920166,120.740730 945.005127,116.737740 947.024475,112.860695 
	C943.501343,109.897064 941.591248,110.430023 939.931641,114.269859 
	C938.433044,117.737259 935.925842,120.755318 934.198669,124.142479 
	C933.187012,126.126442 932.831177,128.444855 931.986572,131.258423 
	C935.241577,131.258423 936.996094,131.258423 939.714172,131.258423 
	C937.524048,133.665588 935.629272,135.292938 934.350830,137.310791 
	C933.476135,138.691437 932.810059,140.846924 933.295227,142.214478 
	C933.604858,143.087341 936.216187,143.588333 937.743652,143.485519 
	C940.365051,143.309143 942.943237,142.516342 945.544556,142.007828 
	C947.929382,141.541611 949.562988,142.019394 948.439270,145.132843 
	C947.862122,146.038727 947.284973,146.944611 946.190979,147.404892 
	C944.550903,147.121124 942.910767,146.837341 940.688599,146.452850 
	C941.231934,150.916168 941.641235,154.278412 942.098022,158.030762 
	C944.029785,157.535339 945.401001,157.183685 946.602051,156.875671 
	C946.602051,153.628555 946.602051,150.701050 947.356079,147.988022 
	C947.922668,149.327621 948.489258,150.667221 949.006470,152.593704 
M938.637390,147.379089 
	C937.765869,147.279861 936.894348,147.180634 935.238953,146.945053 
	C934.063416,150.689621 932.887939,154.434204 931.632935,158.432022 
	C933.720093,159.080261 935.057251,159.495590 937.190369,160.158112 
	C937.801941,155.782272 938.345520,151.892868 938.637390,147.379089 
M604.506042,248.732895 
	C604.605347,265.560547 604.252136,282.405518 604.896179,299.212280 
	C606.330017,336.633057 608.044495,374.046814 610.110718,411.437653 
	C610.830444,424.461731 615.259277,427.974976 628.112732,428.045715 
	C642.609741,428.125519 657.108154,427.997467 671.604553,428.120941 
	C681.933472,428.208893 685.017334,428.884003 680.890564,415.494568 
	C672.835876,389.360535 666.865479,362.763916 663.096619,335.710632 
	C657.401733,294.832458 655.861755,253.751816 658.687073,212.563461 
	C659.103821,206.488022 660.525452,200.364868 662.355591,194.538147 
	C663.958557,189.434860 667.942810,188.528564 672.168823,191.810059 
	C674.496765,193.617737 676.885620,195.785446 678.244934,198.326813 
	C684.354004,209.748505 690.698853,221.102966 695.865784,232.958023 
	C708.677917,262.354401 716.037354,293.483673 724.174133,324.377594 
	C726.385071,332.772125 730.016724,341.158630 734.702759,348.452545 
	C742.449951,360.511353 754.865234,359.778900 761.478271,347.122101 
	C765.133789,340.125732 767.668091,332.387848 769.664856,324.712891 
	C773.846130,308.641693 776.765442,292.230743 781.240845,276.250031 
	C788.568848,250.083649 797.803101,224.582031 811.947388,201.168243 
	C813.728821,198.219299 816.050049,195.465393 818.593933,193.137802 
	C822.762695,189.323456 827.076599,190.260849 829.377991,195.465195 
	C830.773926,198.622162 832.106812,202.087173 832.259399,205.468369 
	C833.249756,227.413254 834.777405,249.386398 834.442627,271.324554 
	C834.071960,295.611023 832.572937,319.932587 830.328308,344.124084 
	C827.861877,370.705536 820.995056,396.473816 812.874329,421.882812 
	C811.127380,427.348999 811.637878,428.008636 817.378235,428.030090 
	C834.874817,428.095428 852.372681,427.954681 869.867859,428.123810 
	C876.635254,428.189209 880.965271,425.159485 883.191711,419.014282 
	C884.319458,415.901703 885.271484,412.672760 885.831482,409.415375 
	C891.147156,378.493134 893.528442,347.241516 893.876587,315.955872 
	C894.341797,274.152069 894.101257,232.308273 892.730713,190.528671 
	C891.952515,166.806992 888.641296,143.139832 885.811035,119.527222 
	C884.567566,109.152550 879.448547,105.515762 869.144165,105.446304 
	C857.813416,105.369926 846.476562,105.642883 835.151855,105.370560 
	C824.358582,105.111023 815.406738,109.067856 808.782715,117.212204 
	C798.816589,129.465622 788.486450,141.609863 780.139038,154.944794 
	C770.097412,170.986008 761.992920,188.237991 752.990173,204.933609 
	C751.786011,207.166824 750.232971,209.211945 748.190430,212.341766 
	C746.112427,208.748901 744.435791,206.314255 743.221497,203.667480 
	C738.711487,193.837097 734.565247,183.835526 729.894531,174.084045 
	C720.243958,153.935699 709.986938,134.127701 695.415955,116.927841 
	C689.506714,109.952538 682.226257,105.812241 672.937073,105.726913 
	C657.444885,105.584610 641.948914,105.648582 626.461243,105.317009 
	C620.726868,105.194244 617.333313,107.728676 615.432739,112.781265 
	C614.555420,115.113556 613.493042,117.481178 613.206909,119.914200 
	C611.015625,138.551590 608.289368,157.164078 607.097900,175.871475 
	C605.573792,199.799561 605.329834,223.809143 604.506042,248.732895 
M294.235718,320.213989 
	C286.391479,301.531708 276.276306,284.180542 263.857758,268.162109 
	C257.633148,260.133057 251.692123,251.878571 245.307709,243.980804 
	C240.681885,238.258499 240.506653,232.643097 244.268036,226.602478 
	C247.347656,221.656784 250.417526,216.705048 253.495453,211.758316 
	C265.359894,192.690308 277.998810,174.048264 288.803955,154.397842 
	C295.380096,142.438309 299.768036,129.126877 303.921265,116.036392 
	C306.654785,107.420692 303.327972,104.070312 294.233673,103.946030 
	C282.738831,103.788940 271.240356,103.865601 259.743591,103.889496 
	C249.694321,103.910378 247.412964,105.732353 244.774887,115.524605 
	C233.144775,158.694244 211.298782,196.523636 183.822098,231.324097 
	C179.950912,236.227142 175.124573,240.567200 170.108536,244.324371 
	C164.481445,248.539246 159.902664,246.575012 158.152069,239.839767 
	C157.449600,237.137115 157.087479,234.278397 157.042328,231.483078 
	C156.635941,206.323959 161.132248,181.780029 166.487900,157.345352 
	C169.618118,143.064041 172.778778,128.787399 175.687302,114.460258 
	C177.351334,106.263374 175.481552,103.990295 167.250595,103.928566 
	C151.755905,103.812370 136.259186,103.976730 120.764275,103.876244 
	C115.405739,103.841492 111.711411,106.165413 109.987846,111.067268 
	C108.341034,115.750839 106.736526,120.551147 105.991592,125.434113 
	C99.048920,170.942871 95.409134,216.781387 94.453903,262.758148 
	C93.762199,296.051239 94.269562,329.400574 95.383209,362.686615 
	C95.937469,379.252686 98.451859,395.835114 101.225899,412.216034 
	C103.059921,423.046051 107.673492,425.928528 118.740082,426.065796 
	C132.067947,426.231171 145.399246,426.128998 158.729050,426.123688 
	C161.060318,426.122742 163.405914,426.175751 165.720123,425.949951 
	C172.733109,425.265717 175.071091,422.319733 173.974854,415.422028 
	C173.322632,411.318115 172.414261,407.252502 171.545303,403.185883 
	C166.955292,381.704956 162.371414,360.255920 161.866089,338.130585 
	C161.584412,325.797058 164.870926,315.145508 173.567505,306.302612 
	C178.940338,300.839355 184.201080,295.256104 189.756165,289.983856 
	C201.526245,278.813019 206.578903,279.370178 214.501831,293.726349 
	C231.474503,324.480438 241.355225,357.398529 242.976318,392.608887 
	C243.366898,401.092560 243.099365,409.605469 243.432892,418.093170 
	C243.681702,424.425110 245.216492,426.015106 251.165283,426.051849 
	C269.658936,426.166138 288.153839,426.065369 306.648224,426.085938 
	C311.478516,426.091309 314.118134,423.742737 314.577667,418.980774 
	C314.769165,416.996338 314.869080,414.991730 314.838409,412.998932 
	C314.344849,380.923401 306.597839,350.437866 294.235718,320.213989 
M435.315063,320.688934 
	C453.786438,315.281952 472.556366,311.804565 491.889740,312.331116 
	C502.957794,312.632568 506.415497,315.220551 506.203827,326.299225 
	C505.973511,338.355194 505.105164,350.700043 502.181610,362.332520 
	C497.858765,379.532562 491.495483,396.221283 485.963867,413.115540 
	C482.874969,422.549561 486.219879,428.617981 496.086945,428.962616 
	C515.213806,429.630737 534.386597,429.963715 553.509949,429.401154 
	C565.803345,429.039520 571.125061,423.571442 573.853882,411.289520 
	C578.599792,389.928864 580.375244,368.196625 580.935486,346.393341 
	C581.603088,320.410278 580.401245,294.507996 577.018188,268.681885 
	C570.480896,218.777039 552.793579,173.697571 520.018555,135.088684 
	C508.987213,122.093803 496.890350,110.191124 481.252533,102.563744 
	C473.804108,98.930740 466.049255,97.757332 458.620422,101.505783 
	C449.906555,105.902664 440.974579,110.385674 433.383636,116.403549 
	C391.779022,149.386444 364.993317,192.702393 348.011444,242.384659 
	C332.659027,287.299713 329.814880,333.586426 334.711609,380.505829 
	C336.026672,393.106445 338.173248,405.585419 344.116058,417.055817 
	C348.505432,425.527863 355.147186,430.007935 364.929138,429.813690 
	C375.255280,429.608643 385.589081,429.818909 395.919128,429.766724 
	C404.076752,429.725494 412.281616,430.074585 420.378723,429.319641 
	C430.057495,428.417236 433.431549,422.455322 429.676117,413.536072 
	C425.868011,404.491608 421.437836,395.711151 417.485474,386.724762 
	C411.725616,373.628571 408.205902,360.033295 408.967743,345.561493 
	C409.403229,337.288788 412.755615,330.734924 420.341766,326.973999 
	C424.945038,324.691833 429.809082,322.935730 435.315063,320.688934 
M981.519043,406.882507 
	C975.976746,379.445129 972.666443,351.729584 970.928589,323.801147 
	C969.062500,293.809998 969.794067,263.883453 974.095215,234.164673 
	C976.855774,215.090439 980.867310,196.196564 984.353699,177.228378 
	C985.658081,170.131805 984.787842,168.966003 977.518799,168.926163 
	C966.694397,168.866837 955.869568,168.888107 945.044922,168.895111 
	C933.009399,168.902893 932.015381,169.762451 929.982666,181.769867 
	C929.954956,181.933914 929.936584,182.099854 929.920837,182.265579 
	C927.118408,211.734695 923.541260,241.155670 921.705322,270.684906 
	C919.255310,310.091339 919.314392,349.590149 922.190613,389.000793 
	C922.912231,398.889771 925.025330,408.727692 927.229675,418.422943 
	C927.791260,420.892639 931.077515,424.482574 933.233643,424.570465 
	C948.351746,425.186493 963.502319,425.121552 978.641052,425.032959 
	C982.546875,425.010132 984.189270,422.399963 983.568176,418.543488 
	C982.985962,414.927795 982.331177,411.323792 981.519043,406.882507 
M799.500000,451.044067 
	C568.139282,451.044067 336.778534,451.044067 105.076431,451.044067 
	C105.076431,453.651672 105.045021,455.307037 105.085449,456.960663 
	C105.124306,458.550415 105.237541,460.138336 105.310020,461.567719 
	C399.087677,461.567719 692.254822,461.567719 985.366272,461.567719 
	C986.696228,451.075592 986.696228,451.058685 976.966736,451.057190 
	C918.144470,451.048187 859.322266,451.047516 799.500000,451.044067 
z"/>
<path fill="#D10706" opacity="1.000000" stroke="none" 
	d="
M604.520142,248.258255 
	C605.329834,223.809143 605.573792,199.799561 607.097900,175.871475 
	C608.289368,157.164078 611.015625,138.551590 613.206909,119.914200 
	C613.493042,117.481178 614.555420,115.113556 615.432739,112.781265 
	C617.333313,107.728676 620.726868,105.194244 626.461243,105.317009 
	C641.948914,105.648582 657.444885,105.584610 672.937073,105.726913 
	C682.226257,105.812241 689.506714,109.952538 695.415955,116.927841 
	C709.986938,134.127701 720.243958,153.935699 729.894531,174.084045 
	C734.565247,183.835526 738.711487,193.837097 743.221497,203.667480 
	C744.435791,206.314255 746.112427,208.748901 748.190430,212.341766 
	C750.232971,209.211945 751.786011,207.166824 752.990173,204.933609 
	C761.992920,188.237991 770.097412,170.986008 780.139038,154.944794 
	C788.486450,141.609863 798.816589,129.465622 808.782715,117.212204 
	C815.406738,109.067856 824.358582,105.111023 835.151855,105.370560 
	C846.476562,105.642883 857.813416,105.369926 869.144165,105.446304 
	C879.448547,105.515762 884.567566,109.152550 885.811035,119.527222 
	C888.641296,143.139832 891.952515,166.806992 892.730713,190.528671 
	C894.101257,232.308273 894.341797,274.152069 893.876587,315.955872 
	C893.528442,347.241516 891.147156,378.493134 885.831482,409.415375 
	C885.271484,412.672760 884.319458,415.901703 883.191711,419.014282 
	C880.965271,425.159485 876.635254,428.189209 869.867859,428.123810 
	C852.372681,427.954681 834.874817,428.095428 817.378235,428.030090 
	C811.637878,428.008636 811.127380,427.348999 812.874329,421.882812 
	C820.995056,396.473816 827.861877,370.705536 830.328308,344.124084 
	C832.572937,319.932587 834.071960,295.611023 834.442627,271.324554 
	C834.777405,249.386398 833.249756,227.413254 832.259399,205.468369 
	C832.106812,202.087173 830.773926,198.622162 829.377991,195.465195 
	C827.076599,190.260849 822.762695,189.323456 818.593933,193.137802 
	C816.050049,195.465393 813.728821,198.219299 811.947388,201.168243 
	C797.803101,224.582031 788.568848,250.083649 781.240845,276.250031 
	C776.765442,292.230743 773.846130,308.641693 769.664856,324.712891 
	C767.668091,332.387848 765.133789,340.125732 761.478271,347.122101 
	C754.865234,359.778900 742.449951,360.511353 734.702759,348.452545 
	C730.016724,341.158630 726.385071,332.772125 724.174133,324.377594 
	C716.037354,293.483673 708.677917,262.354401 695.865784,232.958023 
	C690.698853,221.102966 684.354004,209.748505 678.244934,198.326813 
	C676.885620,195.785446 674.496765,193.617737 672.168823,191.810059 
	C667.942810,188.528564 663.958557,189.434860 662.355591,194.538147 
	C660.525452,200.364868 659.103821,206.488022 658.687073,212.563461 
	C655.861755,253.751816 657.401733,294.832458 663.096619,335.710632 
	C666.865479,362.763916 672.835876,389.360535 680.890564,415.494568 
	C685.017334,428.884003 681.933472,428.208893 671.604553,428.120941 
	C657.108154,427.997467 642.609741,428.125519 628.112732,428.045715 
	C615.259277,427.974976 610.830444,424.461731 610.110718,411.437653 
	C608.044495,374.046814 606.330017,336.633057 604.896179,299.212280 
	C604.252136,282.405518 604.605347,265.560547 604.520142,248.258255 
M870.961609,128.735031 
	C868.576599,127.475403 866.296204,125.439087 863.786987,125.100876 
	C856.065796,124.060181 848.260437,123.623100 840.480286,123.053604 
	C838.165955,122.884201 835.728638,122.661385 833.536926,123.213867 
	C832.260620,123.535599 830.816223,125.216263 830.498840,126.537941 
	C830.315308,127.302307 832.043518,128.946640 833.234802,129.505188 
	C834.502258,130.099442 836.161804,130.063385 837.632446,129.981949 
	C843.443726,129.660172 849.243286,129.114212 855.056030,128.833862 
	C864.788208,128.364502 865.086243,128.422729 865.103394,137.948288 
	C865.162231,170.584000 864.833435,203.220810 864.975281,235.855804 
	C865.059204,255.159302 865.603760,274.465485 866.303589,293.757324 
	C866.430054,297.243713 866.473022,302.775208 871.435425,302.624939 
	C875.761719,302.493896 875.918762,297.349426 876.184753,293.814941 
	C876.921204,284.027130 877.948303,274.196381 877.706604,264.411102 
	C876.724487,224.633057 875.393555,184.862656 873.953430,145.098053 
	C873.763794,139.862595 872.200989,134.676895 870.961609,128.735031 
M695.968506,138.493927 
	C692.021179,126.197906 683.855347,120.301025 670.680969,120.365936 
	C658.544739,120.425743 646.406128,119.236511 634.260986,118.821037 
	C631.218201,118.716949 626.324646,117.365356 626.280090,122.104340 
	C626.234924,126.901688 631.195374,126.129234 634.489624,126.055374 
	C646.803162,125.779320 659.116455,125.366608 671.418945,124.778816 
	C677.180664,124.503540 680.857971,126.628967 682.824097,132.194550 
	C688.083252,147.081665 693.427368,161.941132 698.953003,176.731155 
	C705.874146,195.256317 712.940491,213.728577 720.174500,232.133194 
	C720.808960,233.747437 723.150269,234.690781 724.698853,235.945694 
	C725.776001,234.124710 727.479980,232.395615 727.763916,230.458374 
	C728.083801,228.275726 727.445190,225.790848 726.673157,223.634415 
	C716.589844,195.467636 706.408813,167.335831 695.968506,138.493927 
z"/>
<path fill="#D20706" opacity="1.000000" stroke="none" 
	d="
M294.413086,320.552429 
	C306.597839,350.437866 314.344849,380.923401 314.838409,412.998932 
	C314.869080,414.991730 314.769165,416.996338 314.577667,418.980774 
	C314.118134,423.742737 311.478516,426.091309 306.648224,426.085938 
	C288.153839,426.065369 269.658936,426.166138 251.165283,426.051849 
	C245.216492,426.015106 243.681702,424.425110 243.432892,418.093170 
	C243.099365,409.605469 243.366898,401.092560 242.976318,392.608887 
	C241.355225,357.398529 231.474503,324.480438 214.501831,293.726349 
	C206.578903,279.370178 201.526245,278.813019 189.756165,289.983856 
	C184.201080,295.256104 178.940338,300.839355 173.567505,306.302612 
	C164.870926,315.145508 161.584412,325.797058 161.866089,338.130585 
	C162.371414,360.255920 166.955292,381.704956 171.545303,403.185883 
	C172.414261,407.252502 173.322632,411.318115 173.974854,415.422028 
	C175.071091,422.319733 172.733109,425.265717 165.720123,425.949951 
	C163.405914,426.175751 161.060318,426.122742 158.729050,426.123688 
	C145.399246,426.128998 132.067947,426.231171 118.740082,426.065796 
	C107.673492,425.928528 103.059921,423.046051 101.225899,412.216034 
	C98.451859,395.835114 95.937469,379.252686 95.383209,362.686615 
	C94.269562,329.400574 93.762199,296.051239 94.453903,262.758148 
	C95.409134,216.781387 99.048920,170.942871 105.991592,125.434113 
	C106.736526,120.551147 108.341034,115.750839 109.987846,111.067268 
	C111.711411,106.165413 115.405739,103.841492 120.764275,103.876244 
	C136.259186,103.976730 151.755905,103.812370 167.250595,103.928566 
	C175.481552,103.990295 177.351334,106.263374 175.687302,114.460258 
	C172.778778,128.787399 169.618118,143.064041 166.487900,157.345352 
	C161.132248,181.780029 156.635941,206.323959 157.042328,231.483078 
	C157.087479,234.278397 157.449600,237.137115 158.152069,239.839767 
	C159.902664,246.575012 164.481445,248.539246 170.108536,244.324371 
	C175.124573,240.567200 179.950912,236.227142 183.822098,231.324097 
	C211.298782,196.523636 233.144775,158.694244 244.774887,115.524605 
	C247.412964,105.732353 249.694321,103.910378 259.743591,103.889496 
	C271.240356,103.865601 282.738831,103.788940 294.233673,103.946030 
	C303.327972,104.070312 306.654785,107.420692 303.921265,116.036392 
	C299.768036,129.126877 295.380096,142.438309 288.803955,154.397842 
	C277.998810,174.048264 265.359894,192.690308 253.495453,211.758316 
	C250.417526,216.705048 247.347656,221.656784 244.268036,226.602478 
	C240.506653,232.643097 240.681885,238.258499 245.307709,243.980804 
	C251.692123,251.878571 257.633148,260.133057 263.857758,268.162109 
	C276.276306,284.180542 286.391479,301.531708 294.413086,320.552429 
M122.717644,185.343887 
	C123.530426,178.237610 123.867531,171.037247 125.250641,164.043762 
	C128.582626,147.196152 134.956467,132.456085 153.300339,126.602280 
	C155.103317,126.026932 157.649933,122.726044 157.272980,121.454773 
	C156.545547,119.001518 154.156021,115.480179 152.137161,115.254868 
	C145.275482,114.489075 138.244278,114.560982 131.336121,115.083672 
	C124.363762,115.611237 121.914368,118.099754 120.852684,124.945786 
	C118.226906,141.877625 115.314430,158.790512 113.498451,175.815689 
	C111.434891,195.161972 110.375175,214.617783 109.057747,234.038101 
	C108.895439,236.430634 109.223213,239.273239 110.427750,241.226562 
	C111.677582,243.253326 114.575287,245.967850 116.198738,245.640045 
	C118.353020,245.205063 120.974335,242.384079 121.591988,240.100647 
	C122.607887,236.344894 122.292053,232.198883 122.334320,228.215240 
	C122.482643,214.235077 122.544182,200.253967 122.717644,185.343887 
M284.337341,330.083344 
	C279.808105,328.579376 276.500061,330.806366 277.181519,335.958344 
	C277.865631,341.130890 279.884888,346.152496 281.545929,351.165100 
	C285.721619,363.766144 290.477417,376.194458 294.150726,388.937042 
	C297.830231,401.700928 295.381836,404.279144 282.078033,403.909393 
	C277.622681,403.785553 273.026947,403.034821 268.766693,403.902618 
	C266.549561,404.354248 263.982697,407.419189 263.251801,409.815460 
	C262.173126,413.352081 265.503357,414.873352 268.384491,416.004700 
	C269.154449,416.307068 269.992920,416.654022 270.790710,416.632782 
	C279.730621,416.395020 288.700684,416.448090 297.594543,415.657410 
	C302.378326,415.232117 305.267059,411.771637 305.192108,406.660553 
	C305.128998,402.355103 305.518768,397.863129 304.450500,393.782928 
	C299.317169,374.176453 293.806732,354.667572 288.262573,335.171692 
	C287.772156,333.447021 286.073212,332.066010 284.337341,330.083344 
z"/>
<path fill="#CF0706" opacity="1.000000" stroke="none" 
	d="
M434.935516,320.816101 
	C429.809082,322.935730 424.945038,324.691833 420.341766,326.973999 
	C412.755615,330.734924 409.403229,337.288788 408.967743,345.561493 
	C408.205902,360.033295 411.725616,373.628571 417.485474,386.724762 
	C421.437836,395.711151 425.868011,404.491608 429.676117,413.536072 
	C433.431549,422.455322 430.057495,428.417236 420.378723,429.319641 
	C412.281616,430.074585 404.076752,429.725494 395.919128,429.766724 
	C385.589081,429.818909 375.255280,429.608643 364.929138,429.813690 
	C355.147186,430.007935 348.505432,425.527863 344.116058,417.055817 
	C338.173248,405.585419 336.026672,393.106445 334.711609,380.505829 
	C329.814880,333.586426 332.659027,287.299713 348.011444,242.384659 
	C364.993317,192.702393 391.779022,149.386444 433.383636,116.403549 
	C440.974579,110.385674 449.906555,105.902664 458.620422,101.505783 
	C466.049255,97.757332 473.804108,98.930740 481.252533,102.563744 
	C496.890350,110.191124 508.987213,122.093803 520.018555,135.088684 
	C552.793579,173.697571 570.480896,218.777039 577.018188,268.681885 
	C580.401245,294.507996 581.603088,320.410278 580.935486,346.393341 
	C580.375244,368.196625 578.599792,389.928864 573.853882,411.289520 
	C571.125061,423.571442 565.803345,429.039520 553.509949,429.401154 
	C534.386597,429.963715 515.213806,429.630737 496.086945,428.962616 
	C486.219879,428.617981 482.874969,422.549561 485.963867,413.115540 
	C491.495483,396.221283 497.858765,379.532562 502.181610,362.332520 
	C505.105164,350.700043 505.973511,338.355194 506.203827,326.299225 
	C506.415497,315.220551 502.957794,312.632568 491.889740,312.331116 
	C472.556366,311.804565 453.786438,315.281952 434.935516,320.816101 
M440.769470,129.247681 
	C437.728394,131.842484 434.583557,134.325958 431.662109,137.049149 
	C399.548981,166.983231 377.460602,203.309784 362.986938,244.543930 
	C346.794800,290.673767 344.720154,338.059937 350.500427,386.064667 
	C351.442352,393.887207 354.320648,401.522705 356.759613,409.097931 
	C357.859924,412.515533 360.375122,414.850128 364.636566,414.810944 
	C379.632874,414.673065 394.631287,414.769226 409.628815,414.738007 
	C410.715729,414.735748 411.802002,414.424255 413.644165,414.139862 
	C411.390472,409.146423 409.405396,404.635773 407.329010,400.167542 
	C399.776794,383.915741 393.956970,367.346863 393.794342,348.997314 
	C393.628174,330.248169 402.484436,317.923157 419.086823,311.037354 
	C427.935791,307.367249 437.336670,304.806946 446.694672,302.633667 
	C463.103668,298.822998 479.728302,296.348053 496.691284,297.942474 
	C510.535889,299.243774 518.328430,305.566437 520.295044,319.349426 
	C521.526184,327.977203 521.267334,336.990631 520.417419,345.708221 
	C518.286560,367.564850 511.476379,388.278564 503.552002,408.644806 
	C502.860748,410.421295 502.374878,412.277710 501.567444,414.804932 
	C504.017517,414.804932 505.644379,414.805328 507.271210,414.804871 
	C521.268982,414.800964 535.266907,414.827698 549.264526,414.781006 
	C557.390747,414.753876 558.765808,414.157898 559.766052,406.104340 
	C562.162781,386.806824 564.759705,367.472198 565.734070,348.075104 
	C567.055115,321.777954 565.498718,295.489258 562.075195,269.332520 
	C556.429688,226.200470 541.691956,186.760086 514.858154,152.211792 
	C504.798920,139.260605 493.509827,127.568016 479.750031,118.370216 
	C472.424164,113.473190 465.269104,112.862404 457.869415,117.620346 
	C452.272827,121.218887 446.845337,125.080368 440.769470,129.247681 
z"/>
<path fill="#D10706" opacity="1.000000" stroke="none" 
	d="
M981.613708,407.298584 
	C982.331177,411.323792 982.985962,414.927795 983.568176,418.543488 
	C984.189270,422.399963 982.546875,425.010132 978.641052,425.032959 
	C963.502319,425.121552 948.351746,425.186493 933.233643,424.570465 
	C931.077515,424.482574 927.791260,420.892639 927.229675,418.422943 
	C925.025330,408.727692 922.912231,398.889771 922.190613,389.000793 
	C919.314392,349.590149 919.255310,310.091339 921.705322,270.684906 
	C923.541260,241.155670 927.118408,211.734695 929.920837,182.265579 
	C929.936584,182.099854 929.954956,181.933914 929.982666,181.769867 
	C932.015381,169.762451 933.009399,168.902893 945.044922,168.895111 
	C955.869568,168.888107 966.694397,168.866837 977.518799,168.926163 
	C984.787842,168.966003 985.658081,170.131805 984.353699,177.228378 
	C980.867310,196.196564 976.855774,215.090439 974.095215,234.164673 
	C969.794067,263.883453 969.062500,293.809998 970.928589,323.801147 
	C972.666443,351.729584 975.976746,379.445129 981.613708,407.298584 
M960.722534,399.870056 
	C961.127136,402.123840 961.531677,404.377625 961.990234,406.932007 
	C960.439087,407.017517 959.311829,407.138306 958.185303,407.131775 
	C952.699036,407.099945 947.193359,406.757263 941.738342,407.143311 
	C940.026733,407.264435 938.451599,409.313416 936.813965,410.479980 
	C938.372742,411.659821 939.870056,413.753754 941.500793,413.863464 
	C949.104126,414.374756 956.750854,414.602966 964.369324,414.415802 
	C970.818665,414.257385 971.541443,412.782867 970.610046,406.236206 
	C968.878418,394.064301 967.215820,381.878967 965.797729,369.667480 
	C965.069702,363.398254 965.103943,357.041504 964.411255,350.766510 
	C964.225769,349.086517 962.634766,347.561707 961.689026,345.965637 
	C960.398193,347.439301 958.558594,348.718903 957.951782,350.434509 
	C957.145081,352.715240 956.919250,355.364471 957.103516,357.805634 
	C958.141113,371.553802 959.376526,385.287048 960.722534,399.870056 
M944.089844,235.421524 
	C945.502014,220.533615 946.857239,205.639923 948.372498,190.762527 
	C948.689270,187.652481 950.268921,183.827133 946.389038,182.731171 
	C945.184570,182.390915 941.482849,186.514420 940.926880,189.035858 
	C938.857361,198.422485 937.229614,207.950668 936.200867,217.508026 
	C935.441589,224.562744 935.582825,231.761292 935.973389,238.859985 
	C936.071289,240.640182 938.671997,242.282684 940.122620,243.988464 
	C941.388733,242.259949 942.751282,240.590561 943.867920,238.770325 
	C944.251831,238.144562 944.021606,237.142044 944.089844,235.421524 
z"/>
<path fill="#D10706" opacity="1.000000" stroke="none" 
	d="
M800.000000,451.044067 
	C859.322266,451.047516 918.144470,451.048187 976.966736,451.057190 
	C986.696228,451.058685 986.696228,451.075592 985.366272,461.567719 
	C692.254822,461.567719 399.087677,461.567719 105.310020,461.567719 
	C105.237541,460.138336 105.124306,458.550415 105.085449,456.960663 
	C105.045021,455.307037 105.076431,453.651672 105.076431,451.044067 
	C336.778534,451.044067 568.139282,451.044067 800.000000,451.044067 
z"/>
<path fill="#C50605" opacity="1.000000" stroke="none" 
	d="
M954.745789,120.964233 
	C954.285583,116.848846 955.950500,115.142281 960.254517,114.812698 
	C964.672974,114.474365 969.107178,113.349289 973.348694,111.989220 
	C977.157288,110.768021 979.333496,111.839417 980.771240,115.573662 
	C978.363220,116.730339 974.420593,117.397270 973.844482,119.162781 
	C972.732117,122.571587 973.519836,126.600410 973.519836,130.748337 
	C976.281799,130.932068 978.720947,131.094315 981.733215,131.294693 
	C981.875793,132.918350 982.024292,134.608658 982.205933,136.677170 
	C979.446045,136.916229 977.055298,137.123322 973.599060,137.422684 
	C974.470764,143.118958 975.303345,148.559509 976.135925,154.000061 
	C976.669556,153.965393 977.203125,153.930740 977.736755,153.896088 
	C978.219849,152.052277 978.702881,150.208481 979.577026,146.872116 
	C981.098206,149.143555 983.181580,150.951492 982.853271,152.014572 
	C981.955383,154.921677 980.359741,157.814362 978.293945,160.010498 
	C977.810608,160.524261 973.186829,158.756485 972.517944,157.172668 
	C970.678467,152.817230 969.879761,148.013596 968.767639,143.363815 
	C968.312378,141.460648 968.109802,139.497055 967.757141,137.346497 
	C965.560974,137.346497 963.626709,137.346497 961.232300,137.346497 
	C961.232300,142.233994 961.232300,147.094803 961.232300,152.393280 
	C963.317322,152.077286 965.231384,151.787186 967.488281,151.445129 
	C968.734741,154.336960 968.969238,156.544907 965.000244,157.590820 
	C961.818604,158.429276 958.756104,159.719864 954.619019,161.167221 
	C954.230591,158.375137 953.898865,155.990753 953.264038,152.916565 
	C951.679138,149.810455 950.397461,147.394196 949.115784,144.977936 
	C949.562988,142.019394 947.929382,141.541611 945.544556,142.007828 
	C942.943237,142.516342 940.365051,143.309143 937.743652,143.485519 
	C936.216187,143.588333 933.604858,143.087341 933.295227,142.214478 
	C932.810059,140.846924 933.476135,138.691437 934.350830,137.310791 
	C935.629272,135.292938 937.524048,133.665588 939.714172,131.258423 
	C936.996094,131.258423 935.241577,131.258423 931.986572,131.258423 
	C932.831177,128.444855 933.187012,126.126442 934.198669,124.142479 
	C935.925842,120.755318 938.433044,117.737259 939.931641,114.269859 
	C941.591248,110.430023 943.501343,109.897064 947.024475,112.860695 
	C945.005127,116.737740 942.920166,120.740730 940.761780,124.884628 
	C943.871826,124.777885 943.871826,124.777885 948.512329,118.650223 
	C949.727844,119.337166 950.984985,120.047653 952.516968,121.251862 
	C950.855164,124.929459 948.918579,128.113327 947.846558,129.875839 
	C950.417603,133.606583 952.424988,136.519363 954.745789,139.886902 
	C954.745789,133.146591 954.745789,127.055412 954.745789,120.964233 
M960.824524,129.199692 
	C962.768311,129.988647 964.712097,130.777603 967.699341,131.990067 
	C967.473389,126.834206 967.319885,123.329987 967.167664,119.856903 
	C960.781372,119.927094 960.778870,119.927071 960.736755,125.286354 
	C960.728943,126.284004 960.749756,127.281876 960.824524,129.199692 
M951.031189,142.525864 
	C951.031189,142.525864 950.998657,142.522354 951.031189,142.525864 
M936.019775,128.495621 
	C936.019775,128.495621 935.995789,128.518936 936.019775,128.495621 
z"/>
<path fill="#180202" opacity="1.000000" stroke="none" 
	d="
M954.433289,120.973511 
	C954.745789,127.055412 954.745789,133.146591 954.745789,139.886902 
	C952.424988,136.519363 950.417603,133.606583 947.846558,129.875839 
	C948.918579,128.113327 950.855164,124.929459 952.832214,121.402512 
	C953.288696,121.033897 953.704773,121.008347 954.433289,120.973511 
z"/>
<path fill="#C50605" opacity="1.000000" stroke="none" 
	d="
M938.889160,148.003464 
	C938.345520,151.892868 937.801941,155.782272 937.190369,160.158112 
	C935.057251,159.495590 933.720093,159.080261 931.632935,158.432022 
	C932.887939,154.434204 934.063416,150.689621 935.902466,147.146698 
	C937.340332,147.566711 938.114746,147.785095 938.889160,148.003464 
z"/>
<path fill="#C00605" opacity="1.000000" stroke="none" 
	d="
M946.602051,147.773544 
	C946.602051,150.701050 946.602051,153.628555 946.602051,156.875671 
	C945.401001,157.183685 944.029785,157.535339 942.098022,158.030762 
	C941.641235,154.278412 941.231934,150.916168 940.688599,146.452850 
	C942.910767,146.837341 944.550903,147.121124 946.419189,147.621094 
	C946.647461,147.837311 946.602051,147.773544 946.602051,147.773544 
z"/>
<path fill="#C70606" opacity="1.000000" stroke="none" 
	d="
M948.777527,145.055389 
	C950.397461,147.394196 951.679138,149.810455 952.986755,152.587952 
	C953.012695,152.949158 952.598816,153.039291 952.069275,152.968704 
	C950.711731,152.601013 949.883789,152.303909 949.055786,152.006805 
	C948.489258,150.667221 947.922668,149.327621 946.979065,147.880783 
	C946.602051,147.773544 946.647461,147.837311 946.677612,147.843903 
	C947.284973,146.944611 947.862122,146.038727 948.777527,145.055389 
z"/>
<path fill="#C50605" opacity="1.000000" stroke="none" 
	d="
M949.031128,152.300262 
	C949.883789,152.303909 950.711731,152.601013 951.858154,152.985336 
	C951.119812,152.912949 950.063171,152.753326 949.031128,152.300262 
z"/>
<path fill="#C00605" opacity="1.000000" stroke="none" 
	d="
M938.763306,147.691284 
	C938.114746,147.785095 937.340332,147.566711 936.294373,147.214874 
	C936.894348,147.180634 937.765869,147.279861 938.763306,147.691284 
z"/>
<path fill="#060000" opacity="1.000000" stroke="none" 
	d="
M871.117920,129.101593 
	C872.200989,134.676895 873.763794,139.862595 873.953430,145.098053 
	C875.393555,184.862656 876.724487,224.633057 877.706604,264.411102 
	C877.948303,274.196381 876.921204,284.027130 876.184753,293.814941 
	C875.918762,297.349426 875.761719,302.493896 871.435425,302.624939 
	C866.473022,302.775208 866.430054,297.243713 866.303589,293.757324 
	C865.603760,274.465485 865.059204,255.159302 864.975281,235.855804 
	C864.833435,203.220810 865.162231,170.584000 865.103394,137.948288 
	C865.086243,128.422729 864.788208,128.364502 855.056030,128.833862 
	C849.243286,129.114212 843.443726,129.660172 837.632446,129.981949 
	C836.161804,130.063385 834.502258,130.099442 833.234802,129.505188 
	C832.043518,128.946640 830.315308,127.302307 830.498840,126.537941 
	C830.816223,125.216263 832.260620,123.535599 833.536926,123.213867 
	C835.728638,122.661385 838.165955,122.884201 840.480286,123.053604 
	C848.260437,123.623100 856.065796,124.060181 863.786987,125.100876 
	C866.296204,125.439087 868.576599,127.475403 871.117920,129.101593 
z"/>
<path fill="#060000" opacity="1.000000" stroke="none" 
	d="
M696.110413,138.844574 
	C706.408813,167.335831 716.589844,195.467636 726.673157,223.634415 
	C727.445190,225.790848 728.083801,228.275726 727.763916,230.458374 
	C727.479980,232.395615 725.776001,234.124710 724.698853,235.945709 
	C723.150269,234.690781 720.808960,233.747437 720.174500,232.133194 
	C712.940491,213.728577 705.874146,195.256317 698.953003,176.731155 
	C693.427368,161.941132 688.083252,147.081665 682.824097,132.194550 
	C680.857971,126.628967 677.180664,124.503540 671.418945,124.778816 
	C659.116455,125.366608 646.803162,125.779320 634.489624,126.055374 
	C631.195374,126.129234 626.234924,126.901688 626.280090,122.104340 
	C626.324646,117.365356 631.218201,118.716949 634.260986,118.821037 
	C646.406128,119.236511 658.544739,120.425743 670.680969,120.365936 
	C683.855347,120.301025 692.021179,126.197906 696.110413,138.844574 
z"/>
<path fill="#050000" opacity="1.000000" stroke="none" 
	d="
M122.678154,185.808563 
	C122.544182,200.253967 122.482643,214.235077 122.334320,228.215240 
	C122.292053,232.198883 122.607887,236.344894 121.591988,240.100647 
	C120.974335,242.384079 118.353020,245.205063 116.198738,245.640045 
	C114.575287,245.967850 111.677582,243.253326 110.427750,241.226562 
	C109.223213,239.273239 108.895439,236.430634 109.057747,234.038101 
	C110.375175,214.617783 111.434891,195.161972 113.498451,175.815689 
	C115.314430,158.790512 118.226906,141.877625 120.852684,124.945786 
	C121.914368,118.099754 124.363762,115.611237 131.336121,115.083672 
	C138.244278,114.560982 145.275482,114.489075 152.137161,115.254868 
	C154.156021,115.480179 156.545547,119.001518 157.272980,121.454773 
	C157.649933,122.726044 155.103317,126.026932 153.300339,126.602280 
	C134.956467,132.456085 128.582626,147.196152 125.250641,164.043762 
	C123.867531,171.037247 123.530426,178.237610 122.678154,185.808563 
z"/>
<path fill="#050000" opacity="1.000000" stroke="none" 
	d="
M284.636475,330.304352 
	C286.073212,332.066010 287.772156,333.447021 288.262573,335.171692 
	C293.806732,354.667572 299.317169,374.176453 304.450500,393.782928 
	C305.518768,397.863129 305.128998,402.355103 305.192108,406.660553 
	C305.267059,411.771637 302.378326,415.232117 297.594543,415.657410 
	C288.700684,416.448090 279.730621,416.395020 270.790710,416.632782 
	C269.992920,416.654022 269.154449,416.307068 268.384491,416.004700 
	C265.503357,414.873352 262.173126,413.352081 263.251801,409.815460 
	C263.982697,407.419189 266.549561,404.354248 268.766693,403.902618 
	C273.026947,403.034821 277.622681,403.785553 282.078033,403.909393 
	C295.381836,404.279144 297.830231,401.700928 294.150726,388.937042 
	C290.477417,376.194458 285.721619,363.766144 281.545929,351.165100 
	C279.884888,346.152496 277.865631,341.130890 277.181519,335.958344 
	C276.500061,330.806366 279.808105,328.579376 284.636475,330.304352 
z"/>
<path fill="#020000" opacity="1.000000" stroke="none" 
	d="
M441.056030,129.036255 
	C446.845337,125.080368 452.272827,121.218887 457.869415,117.620346 
	C465.269104,112.862404 472.424164,113.473190 479.750031,118.370216 
	C493.509827,127.568016 504.798920,139.260605 514.858154,152.211792 
	C541.691956,186.760086 556.429688,226.200470 562.075195,269.332520 
	C565.498718,295.489258 567.055115,321.777954 565.734070,348.075104 
	C564.759705,367.472198 562.162781,386.806824 559.766052,406.104340 
	C558.765808,414.157898 557.390747,414.753876 549.264526,414.781006 
	C535.266907,414.827698 521.268982,414.800964 507.271210,414.804871 
	C505.644379,414.805328 504.017517,414.804932 501.567444,414.804932 
	C502.374878,412.277710 502.860748,410.421295 503.552002,408.644806 
	C511.476379,388.278564 518.286560,367.564850 520.417419,345.708221 
	C521.267334,336.990631 521.526184,327.977203 520.295044,319.349426 
	C518.328430,305.566437 510.535889,299.243774 496.691284,297.942474 
	C479.728302,296.348053 463.103668,298.822998 446.694672,302.633667 
	C437.336670,304.806946 427.935791,307.367249 419.086823,311.037354 
	C402.484436,317.923157 393.628174,330.248169 393.794342,348.997314 
	C393.956970,367.346863 399.776794,383.915741 407.329010,400.167542 
	C409.405396,404.635773 411.390472,409.146423 413.644165,414.139862 
	C411.802002,414.424255 410.715729,414.735748 409.628815,414.738007 
	C394.631287,414.769226 379.632874,414.673065 364.636566,414.810944 
	C360.375122,414.850128 357.859924,412.515533 356.759613,409.097931 
	C354.320648,401.522705 351.442352,393.887207 350.500427,386.064667 
	C344.720154,338.059937 346.794800,290.673767 362.986938,244.543930 
	C377.460602,203.309784 399.548981,166.983231 431.662109,137.049149 
	C434.583557,134.325958 437.728394,131.842484 441.056030,129.036255 
M510.123718,256.753937 
	C516.509888,251.706589 518.049744,244.714600 516.386536,237.424789 
	C514.290039,228.235519 511.868011,218.962585 508.170715,210.332230 
	C502.130066,196.232010 494.593384,182.776550 483.859131,171.591080 
	C474.541595,161.881882 464.270721,160.990311 453.330322,168.694427 
	C448.738739,171.927719 444.272705,175.630539 440.637421,179.879501 
	C426.065674,196.911011 413.602783,215.419937 404.551178,235.977859 
	C402.193878,241.331726 400.709869,247.475479 400.544617,253.305161 
	C400.194458,265.658508 408.407745,272.110443 420.468109,269.378906 
	C441.634918,264.584961 462.914734,261.364624 484.712860,261.478821 
	C493.076996,261.522614 501.803223,261.797119 510.123718,256.753937 
M469.411987,130.185883 
	C474.990601,135.075119 481.332458,139.329758 486.016327,144.962952 
	C506.836945,170.003632 523.805115,197.258347 532.255432,229.182678 
	C533.562500,234.120529 535.873535,238.827972 538.088379,243.466171 
	C538.666626,244.677032 540.629822,245.226532 541.956970,246.079788 
	C542.810181,244.604172 544.478882,243.058624 544.359497,241.666382 
	C544.036255,237.897659 543.387512,234.036942 542.103027,230.489685 
	C532.349854,203.556061 519.287354,178.378235 501.562592,155.765884 
	C492.541840,144.257675 482.772827,133.447327 470.352112,123.422012 
	C469.744049,126.055855 469.323212,127.878708 469.411987,130.185883 
M379.463318,409.699615 
	C384.591278,409.299744 389.728149,408.983276 394.840149,408.434692 
	C395.960083,408.314514 397.884888,407.363098 397.882080,406.802246 
	C397.875763,405.534485 397.224823,403.739777 396.237488,403.132172 
	C394.778259,402.234161 392.795532,402.195465 391.041840,401.765839 
	C385.920227,400.511169 380.494232,399.935272 375.751465,397.825592 
	C367.948700,394.354675 365.244202,386.800568 362.950134,379.161926 
	C362.566040,377.883057 360.930206,376.077972 359.931305,376.114502 
	C358.685730,376.160065 356.806976,377.637756 356.401703,378.886566 
	C353.668091,387.309570 355.636871,395.392517 359.345673,402.993713 
	C362.175232,408.792847 368.053650,408.935822 373.603271,409.251190 
	C375.261444,409.345428 376.912720,409.559998 379.463318,409.699615 
z"/>
<path fill="#090000" opacity="1.000000" stroke="none" 
	d="
M960.633545,399.447693 
	C959.376526,385.287048 958.141113,371.553802 957.103516,357.805634 
	C956.919250,355.364471 957.145081,352.715240 957.951782,350.434509 
	C958.558594,348.718903 960.398193,347.439301 961.689026,345.965637 
	C962.634766,347.561707 964.225769,349.086517 964.411255,350.766510 
	C965.103943,357.041504 965.069702,363.398254 965.797729,369.667480 
	C967.215820,381.878967 968.878418,394.064301 970.610046,406.236206 
	C971.541443,412.782867 970.818665,414.257385 964.369324,414.415802 
	C956.750854,414.602966 949.104126,414.374756 941.500793,413.863464 
	C939.870056,413.753754 938.372742,411.659821 936.813965,410.479980 
	C938.451599,409.313416 940.026733,407.264435 941.738342,407.143311 
	C947.193359,406.757263 952.699036,407.099945 958.185303,407.131775 
	C959.311829,407.138306 960.439087,407.017517 961.990234,406.932007 
	C961.531677,404.377625 961.127136,402.123840 960.633545,399.447693 
z"/>
<path fill="#090000" opacity="1.000000" stroke="none" 
	d="
M944.080872,235.866577 
	C944.021606,237.142044 944.251831,238.144562 943.867920,238.770325 
	C942.751282,240.590561 941.388733,242.259949 940.122559,243.988464 
	C938.671997,242.282684 936.071289,240.640182 935.973389,238.859985 
	C935.582825,231.761292 935.441589,224.562744 936.200867,217.508026 
	C937.229614,207.950668 938.857361,198.422485 940.926880,189.035858 
	C941.482849,186.514420 945.184570,182.390915 946.389038,182.731171 
	C950.268921,183.827133 948.689270,187.652481 948.372498,190.762527 
	C946.857239,205.639923 945.502014,220.533615 944.080872,235.866577 
z"/>
<path fill="#0D0000" opacity="1.000000" stroke="none" 
	d="
M960.790955,128.739670 
	C960.749756,127.281876 960.728943,126.284004 960.736755,125.286354 
	C960.778870,119.927071 960.781372,119.927094 967.167664,119.856903 
	C967.319885,123.329987 967.473389,126.834206 967.699341,131.990067 
	C964.712097,130.777603 962.768311,129.988647 960.790955,128.739670 
z"/>
<path fill="#C70606" opacity="1.000000" stroke="none" 
	d="
M951.014893,142.524109 
	C950.998657,142.522354 951.031189,142.525864 951.014893,142.524109 
z"/>
<path fill="#C70606" opacity="1.000000" stroke="none" 
	d="
M936.007812,128.507278 
	C935.995789,128.518936 936.019775,128.495621 936.007812,128.507278 
z"/>
<path fill="#CF0706" opacity="1.000000" stroke="none" 
	d="
M509.812561,256.962494 
	C501.803223,261.797119 493.076996,261.522614 484.712860,261.478821 
	C462.914734,261.364624 441.634918,264.584961 420.468109,269.378906 
	C408.407745,272.110443 400.194458,265.658508 400.544617,253.305161 
	C400.709869,247.475479 402.193878,241.331726 404.551178,235.977859 
	C413.602783,215.419937 426.065674,196.911011 440.637421,179.879501 
	C444.272705,175.630539 448.738739,171.927719 453.330322,168.694427 
	C464.270721,160.990311 474.541595,161.881882 483.859131,171.591080 
	C494.593384,182.776550 502.130066,196.232010 508.170715,210.332230 
	C511.868011,218.962585 514.290039,228.235519 516.386536,237.424789 
	C518.049744,244.714600 516.509888,251.706589 509.812561,256.962494 
M427.105682,224.642578 
	C422.008881,234.143433 415.319427,243.059464 415.305206,255.038788 
	C417.391449,254.840042 418.737579,254.884888 419.991608,254.566635 
	C442.870789,248.760147 466.090027,246.213654 489.705322,246.368744 
	C503.169128,246.457153 503.538544,245.415588 500.319824,232.133652 
	C496.403687,215.973648 487.972290,202.047180 478.786835,188.522919 
	C470.141541,175.793930 464.798553,174.924210 454.895782,186.684433 
	C444.975250,198.465714 436.593231,211.542496 427.105682,224.642578 
z"/>
<path fill="#CA0605" opacity="1.000000" stroke="none" 
	d="
M469.157166,129.943726 
	C469.323212,127.878708 469.744049,126.055855 470.352112,123.422012 
	C482.772827,133.447327 492.541840,144.257675 501.562592,155.765884 
	C519.287354,178.378235 532.349854,203.556061 542.103027,230.489685 
	C543.387512,234.036942 544.036255,237.897659 544.359497,241.666382 
	C544.478882,243.058624 542.810181,244.604172 541.956909,246.079773 
	C540.629822,245.226532 538.666626,244.677032 538.088379,243.466171 
	C535.873535,238.827972 533.562500,234.120529 532.255432,229.182678 
	C523.805115,197.258347 506.836945,170.003632 486.016327,144.962952 
	C481.332458,139.329758 474.990601,135.075119 469.157166,129.943726 
z"/>
<path fill="#CC0605" opacity="1.000000" stroke="none" 
	d="
M379.015259,409.709534 
	C376.912720,409.559998 375.261444,409.345428 373.603271,409.251190 
	C368.053650,408.935822 362.175232,408.792847 359.345673,402.993713 
	C355.636871,395.392517 353.668091,387.309570 356.401703,378.886566 
	C356.806976,377.637756 358.685730,376.160065 359.931305,376.114502 
	C360.930206,376.077972 362.566040,377.883057 362.950134,379.161926 
	C365.244202,386.800568 367.948700,394.354675 375.751465,397.825592 
	C380.494232,399.935272 385.920227,400.511169 391.041840,401.765839 
	C392.795532,402.195465 394.778259,402.234161 396.237488,403.132172 
	C397.224823,403.739777 397.875763,405.534485 397.882080,406.802246 
	C397.884888,407.363098 395.960083,408.314514 394.840149,408.434692 
	C389.728149,408.983276 384.591278,409.299744 379.015259,409.709534 
z"/>
<path fill="#020000" opacity="1.000000" stroke="none" 
	d="
M427.321289,224.347015 
	C436.593231,211.542496 444.975250,198.465714 454.895782,186.684433 
	C464.798553,174.924210 470.141541,175.793930 478.786835,188.522919 
	C487.972290,202.047180 496.403687,215.973648 500.319824,232.133652 
	C503.538544,245.415588 503.169128,246.457153 489.705322,246.368744 
	C466.090027,246.213654 442.870789,248.760147 419.991608,254.566635 
	C418.737579,254.884888 417.391449,254.840042 415.305206,255.038788 
	C415.319427,243.059464 422.008881,234.143433 427.321289,224.347015 
z"/>
</svg>