<svg xmlns="http://www.w3.org/2000/svg" xmlns:xlink="http://www.w3.org/1999/xlink" width="2060" zoomAndPan="magnify" viewBox="0 0 1544.88 809.999993" height="1080" preserveAspectRatio="xMidYMid meet" version="1.0"><defs><clipPath id="55973dc1e1"><path d="M 0 0.03125 L 1544.761719 0.03125 L 1544.761719 809.96875 L 0 809.96875 Z M 0 0.03125 " clip-rule="nonzero"/></clipPath><clipPath id="daa639ff3e"><path d="M 893 168.347656 L 1040 168.347656 L 1040 336 L 893 336 Z M 893 168.347656 " clip-rule="nonzero"/></clipPath><clipPath id="a10ff9cd0a"><path d="M 898.242188 168.5625 C 976.925781 170.5625 979.421875 173.058594 984.4375 179.582031 C 996.960938 196.109375 1016.007812 254.238281 1025.542969 282.304688 C 1032.042969 301.351562 1041.058594 323.410156 1039.554688 331.417969 C 1038.5625 333.933594 1037.058594 335.9375 1035.550781 335.9375 C 1033.546875 336.433594 1029.546875 333.417969 1029.027344 331.914062 C 1029.027344 329.910156 1032.042969 325.90625 1033.546875 325.90625 C 1035.550781 325.414062 1039.058594 328.921875 1039.554688 330.425781 C 1039.554688 332.429688 1036.5625 336.433594 1034.042969 335.9375 C 1024.035156 333.933594 982.929688 198.628906 973.417969 183.089844 C 971.910156 180.074219 971.910156 179.085938 968.898438 178.074219 C 959.878906 173.578125 905.773438 182.078125 897.25 177.578125 C 894.734375 176.074219 893.226562 174.070312 893.742188 172.566406 C 893.742188 171.058594 898.242188 168.5625 898.242188 168.5625 " clip-rule="nonzero"/></clipPath><clipPath id="9f134afcc5"><path d="M 1186 174.480469 L 1254 174.480469 L 1254 432.203125 L 1186 432.203125 Z M 1186 174.480469 " clip-rule="nonzero"/></clipPath><clipPath id="5a9d5929a7"><path d="M 1190.894531 174.566406 C 1238.5 176.566406 1241.019531 177.578125 1244.011719 182.078125 C 1249.542969 191.613281 1248.53125 213.648438 1250.035156 238.207031 C 1252.53125 282.304688 1257.546875 409.585938 1250.035156 427.125 C 1248.53125 430.136719 1246.527344 432.140625 1244.527344 432.140625 C 1243.019531 432.140625 1239.511719 427.640625 1240.007812 426.132812 C 1240.503906 424.628906 1248.035156 422.625 1248.53125 423.617188 C 1249.542969 424.132812 1247.023438 431.644531 1245.515625 432.140625 C 1244.011719 432.140625 1241.511719 430.632812 1240.007812 427.125 C 1230.988281 407.085938 1240.007812 212.144531 1236.003906 189.609375 C 1235.507812 186.101562 1236.003906 184.59375 1234.003906 183.089844 C 1228.492188 179.582031 1195.910156 187.09375 1189.90625 183.585938 C 1187.386719 182.59375 1185.878906 180.074219 1186.394531 178.570312 C 1186.394531 177.085938 1190.894531 174.566406 1190.894531 174.566406 " clip-rule="nonzero"/></clipPath><clipPath id="228bb7e7c4"><path d="M 667 175.167969 L 779 175.167969 L 779 352 L 667 352 Z M 667 175.167969 " clip-rule="nonzero"/></clipPath><clipPath id="815a6264b0"><path d="M 672.457031 175.253906 C 703.277344 200.800781 729.769531 236.441406 744.707031 263.429688 C 759.167969 289.429688 780.367188 334.710938 777.957031 345.792969 C 777.460938 349.171875 774.105469 351.582031 772.660156 351.582031 C 771.199219 351.089844 768.789062 345.320312 769.757812 344.351562 C 770.25 343.382812 776.988281 344.351562 777.957031 345.320312 C 778.429688 346.761719 776.019531 351.089844 774.578125 351.582031 C 773.136719 352.054688 771.199219 351.089844 769.28125 349.171875 C 762.050781 341.46875 752.410156 297.132812 738.9375 272.082031 C 724 245.113281 696.042969 206.097656 682.078125 193.074219 C 676.308594 187.308594 668.605469 186.339844 667.636719 182.960938 C 667.140625 180.550781 672.457031 175.253906 672.457031 175.253906 " clip-rule="nonzero"/></clipPath><clipPath id="d06343e2cb"><path d="M 506 535.335938 L 570 535.335938 L 570 585 L 506 585 Z M 506 535.335938 " clip-rule="nonzero"/></clipPath><clipPath id="fa1af16045"><path d="M 518.296875 541.382812 C 527.441406 579.929688 560.199219 570.289062 565.988281 574.632812 C 568.398438 576.078125 569.347656 578.960938 568.871094 580.898438 C 568.398438 582.339844 565.492188 583.78125 564.050781 583.78125 C 562.609375 583.308594 559.726562 579.929688 559.726562 577.992188 C 560.199219 576.550781 564.050781 574.140625 565.492188 574.632812 C 566.957031 574.632812 569.839844 578.960938 568.871094 580.402344 C 566.957031 584.253906 527.441406 587.632812 517.328125 580.898438 C 510.589844 576.550781 508.179688 565.464844 507.210938 557.761719 C 505.769531 551.023438 506.71875 540.414062 509.621094 537.53125 C 511.066406 535.617188 514.445312 535.617188 515.886719 536.089844 C 517.328125 537.058594 518.296875 541.382812 518.296875 541.382812 " clip-rule="nonzero"/></clipPath><clipPath id="1abfc6bc41"><path d="M 1336 259.382812 L 1356.246094 259.382812 L 1356.246094 347.945312 L 1336 347.945312 Z M 1336 259.382812 " clip-rule="nonzero"/></clipPath><clipPath id="87c204046f"><path d="M 1356.09375 264.699219 C 1346.347656 316.289062 1350.714844 338.605469 1347.636719 344.503906 C 1346.347656 346.828125 1344.300781 347.839844 1342.75 347.839844 C 1341.203125 347.578125 1338.125 343.984375 1338.382812 342.457031 C 1338.382812 340.910156 1342.234375 338.347656 1343.785156 338.347656 C 1345.054688 338.347656 1346.863281 339.898438 1347.378906 340.910156 C 1347.894531 342.199219 1347.894531 344.242188 1347.121094 345.535156 C 1346.347656 346.570312 1344.539062 347.839844 1343.269531 347.839844 C 1341.71875 347.839844 1339.675781 346.828125 1338.640625 344.503906 C 1335.304688 338.347656 1337.371094 312.691406 1339.15625 298.316406 C 1340.707031 285.488281 1343.527344 267.003906 1347.636719 262.136719 C 1349.164062 260.074219 1351.46875 259.0625 1353.019531 259.554688 C 1354.566406 260.074219 1356.09375 264.699219 1356.09375 264.699219 " clip-rule="nonzero"/></clipPath><clipPath id="ce10837085"><path d="M 1338.363281 493 L 1388 493 L 1388 592 L 1338.363281 592 Z M 1338.363281 493 " clip-rule="nonzero"/></clipPath><clipPath id="9096d9eec9"><path d="M 1377.855469 497.199219 C 1380.15625 563.269531 1389.582031 582.402344 1387.042969 587.761719 C 1386.269531 589.808594 1383.472656 591.078125 1381.941406 590.839844 C 1380.414062 590.582031 1378.371094 587.007812 1378.371094 587.007812 C 1378.371094 587.007812 1383.472656 590.324219 1383.472656 591.078125 C 1383.214844 591.59375 1380.671875 591.335938 1378.113281 591.335938 C 1371.484375 591.59375 1348.519531 592.625 1342.644531 590.066406 C 1340.339844 588.796875 1338.554688 587.007812 1338.554688 585.480469 C 1338.554688 584.191406 1341.890625 581.652344 1343.160156 581.652344 C 1344.429688 581.652344 1345.957031 582.664062 1346.476562 583.933594 C 1346.992188 584.964844 1346.734375 588.019531 1345.699219 588.796875 C 1344.6875 589.808594 1341.890625 590.066406 1340.601562 589.289062 C 1339.589844 588.796875 1338.554688 587.269531 1338.554688 585.976562 C 1338.8125 584.449219 1340.339844 582.664062 1342.902344 581.652344 C 1348.003906 579.347656 1365.867188 581.390625 1372.496094 581.910156 C 1375.808594 581.910156 1377.855469 581.652344 1380.15625 582.402344 C 1382.695312 583.4375 1387.042969 586.234375 1387.042969 587.761719 C 1387.042969 589.054688 1384.484375 590.839844 1382.953125 590.839844 C 1381.683594 591.078125 1380.414062 590.324219 1379.125 589.054688 C 1376.324219 585.480469 1373.765625 574.765625 1372.238281 564.304688 C 1369.4375 547.453125 1366.125 505.871094 1369.695312 497.199219 C 1370.707031 494.636719 1372.753906 493.109375 1374.28125 493.109375 C 1375.550781 493.367188 1377.855469 497.199219 1377.855469 497.199219 " clip-rule="nonzero"/></clipPath><clipPath id="f7cc66bdc8"><path d="M 154.125 162 L 224.652344 162 L 224.652344 351 L 154.125 351 Z M 154.125 162 " clip-rule="nonzero"/></clipPath><clipPath id="188a43691b"><path d="M 216.195312 180.398438 C 171.515625 193.160156 174.703125 259.296875 172.421875 289.859375 C 171.042969 311.292969 176.078125 336.820312 171.515625 345.039062 C 169.6875 348.675781 166.027344 350.957031 163.746094 350.507812 C 161.011719 350.054688 156.449219 344.589844 156 341.855469 C 156 339.574219 158.28125 336.367188 160.109375 335.464844 C 162.84375 334.539062 167.855469 335.464844 169.6875 337.292969 C 171.515625 338.648438 172.421875 342.308594 171.96875 344.113281 C 171.042969 346.871094 166.953125 350.507812 164.671875 350.507812 C 161.9375 350.507812 157.828125 346.871094 156 342.757812 C 152.363281 334.085938 155.546875 316.761719 156.449219 298.511719 C 158.730469 268.875 166.953125 199.554688 171.042969 180.398438 C 172.421875 174.007812 172.421875 171.273438 174.703125 168.539062 C 176.984375 165.785156 180.621094 164.429688 185.65625 163.503906 C 193.402344 162.148438 214.386719 160.769531 219.855469 164.882812 C 223.039062 167.164062 224.417969 172.175781 223.964844 174.910156 C 223.039062 177.191406 216.195312 180.398438 216.195312 180.398438 " clip-rule="nonzero"/></clipPath><clipPath id="995e414d3d"><path d="M 374.507812 469 L 436 469 L 436 595.46875 L 374.507812 595.46875 Z M 374.507812 469 " clip-rule="nonzero"/></clipPath><clipPath id="aca3a984c6"><path d="M 409.675781 474.320312 C 433.972656 549.820312 436.148438 568.929688 435.265625 578.464844 C 434.835938 583.242188 434.40625 586.277344 432.230469 588.882812 C 429.625 591.484375 425.277344 593.230469 419.640625 594.089844 C 410.105469 595.832031 385.808594 596.695312 379.289062 591.917969 C 376.253906 589.3125 374.507812 583.671875 375.820312 581.070312 C 376.683594 578.894531 381.890625 576.742188 384.496094 576.742188 C 386.667969 577.175781 389.273438 579.777344 390.132812 581.5 C 391.015625 583.671875 390.566406 587.160156 389.273438 588.882812 C 387.53125 591.054688 382.753906 592.800781 380.148438 592.347656 C 377.996094 591.484375 375.390625 588.882812 374.960938 586.707031 C 374.960938 584.105469 377.113281 579.347656 381.03125 576.742188 C 387.960938 572.828125 413.570312 581.070312 419.210938 574.570312 C 424.847656 567.617188 418.347656 550.273438 415.316406 536.367188 C 411.398438 518.59375 393.621094 488.203125 394.910156 477.785156 C 395.773438 473.460938 398.375 469.972656 400.980469 469.542969 C 403.15625 469.113281 409.675781 474.320312 409.675781 474.320312 " clip-rule="nonzero"/></clipPath></defs><g clip-path="url(#55973dc1e1)"><path fill="#ffffff" d="M 0 0.03125 L 1544.878906 0.03125 L 1544.878906 809.96875 L 0 809.96875 Z M 0 0.03125 " fill-opacity="1" fill-rule="nonzero"/><path fill="#ffffff" d="M 0 0.03125 L 1544.878906 0.03125 L 1544.878906 809.96875 L 0 809.96875 Z M 0 0.03125 " fill-opacity="1" fill-rule="nonzero"/></g><path fill="#d40707" d="M 966.035156 611.527344 L 897.253906 611.527344 C 888 611.527344 881.84375 610.214844 878.746094 607.566406 C 875.6875 604.878906 873.363281 599.886719 871.773438 592.589844 C 869.578125 582.324219 867.554688 555.464844 865.660156 512.011719 C 863.808594 468.582031 862.90625 419.875 862.90625 365.921875 C 862.90625 326.449219 863.980469 289.28125 866.175781 254.4375 C 868.351562 219.550781 870.824219 194.222656 873.578125 178.425781 C 873.75 177.628906 873.945312 176.746094 874.183594 175.753906 C 877.496094 157.976562 882.832031 149.066406 890.195312 149.066406 L 958.03125 149.066406 C 969.4375 149.066406 978.863281 152.144531 986.265625 158.28125 C 993.671875 164.371094 1002.902344 176.101562 1013.988281 193.488281 C 1027.417969 215.011719 1039.46875 238.296875 1050.144531 263.304688 C 1060.820312 288.269531 1067.125 300.753906 1069.082031 300.753906 C 1071.085938 300.753906 1078.144531 288.078125 1090.261719 262.703125 C 1102.421875 237.351562 1116.386719 214.277344 1132.183594 193.488281 C 1145.441406 175.925781 1155.964844 164.132812 1163.777344 158.109375 C 1171.570312 152.082031 1179.8125 149.066406 1188.484375 149.066406 L 1246.25 149.066406 C 1257.140625 149.066406 1263.984375 156.6875 1266.738281 171.882812 C 1266.910156 173.667969 1267.191406 175.238281 1267.601562 176.617188 C 1271.152344 195.792969 1273.90625 224.007812 1275.863281 261.238281 C 1277.867188 298.429688 1278.878906 340.742188 1278.878906 388.132812 C 1278.878906 427.28125 1277.78125 463.847656 1275.605469 497.808594 C 1273.410156 531.726562 1270.546875 559.078125 1266.996094 579.847656 C 1266.589844 581.398438 1266.179688 583.464844 1265.792969 586.046875 C 1263.039062 603.046875 1255.933594 611.527344 1244.527344 611.527344 L 1169.289062 611.527344 C 1165.328125 611.527344 1162.679688 611.25 1161.367188 610.667969 C 1160.097656 610.042969 1159.472656 608.945312 1159.472656 607.394531 C 1159.472656 606.773438 1161.800781 599.046875 1166.449219 584.238281 C 1171.097656 569.429688 1175.078125 554.238281 1178.414062 538.613281 C 1183.171875 516.121094 1186.679688 492.339844 1188.917969 467.246094 C 1191.199219 442.171875 1192.359375 407.5 1192.359375 363.253906 L 1192.359375 348.703125 C 1192.359375 321.5 1191.113281 301.871094 1188.65625 289.820312 C 1186.183594 277.769531 1182.074219 271.742188 1176.347656 271.742188 C 1170.019531 271.742188 1161.390625 282.460938 1150.433594 303.851562 C 1139.460938 325.265625 1128.933594 352.382812 1118.839844 385.207031 C 1113.160156 404.144531 1107.433594 427.644531 1101.710938 455.710938 C 1094.585938 491.652344 1083.71875 509.601562 1069.082031 509.601562 C 1052.726562 509.601562 1040.09375 490.640625 1031.203125 452.699219 C 1025.285156 427.214844 1019.753906 406.101562 1014.589844 389.335938 C 1002.367188 351.632812 990.917969 322.425781 980.242188 301.699219 C 969.566406 280.933594 960.570312 270.539062 953.296875 270.539062 C 948.132812 270.539062 944.515625 277.253906 942.449219 290.679688 C 940.382812 304.109375 939.351562 327.699219 939.351562 361.445312 C 939.351562 441.851562 950.023438 517.21875 971.375 587.511719 C 974.128906 596.980469 975.507812 602.53125 975.507812 604.125 C 975.507812 606.878906 974.816406 608.816406 973.441406 609.890625 C 972.0625 610.988281 969.589844 611.527344 966.035156 611.527344 Z M 966.035156 611.527344 " fill-opacity="1" fill-rule="nonzero"/><path stroke-linecap="butt" transform="matrix(4.817459, 0, 0, 4.81746, 465.742292, -23.725685)" fill="none" stroke-linejoin="miter" d="M 24.115551 79.635274 C 24.115551 80.819119 24.302858 81.61862 24.678282 82.029722 C 25.053707 82.444878 25.790772 82.650835 26.894343 82.650835 C 26.934075 82.650835 28.927151 82.225948 32.867085 81.381851 C 36.807829 80.532888 41.025074 80.108812 45.514766 80.108812 C 49.298205 80.108812 51.701573 79.872043 52.729734 79.402559 C 53.752219 78.929021 54.2663 77.964107 54.2663 76.50295 C 54.2663 74.926653 53.868982 73.004932 53.082455 70.740221 C 52.291873 68.47551 51.228035 66.201068 49.888506 63.913653 C 47.957865 60.603753 46.41238 58.356069 45.251239 57.177089 C 44.089287 55.993245 42.9322 55.403755 41.792952 55.403755 C 40.452612 55.403755 38.907127 56.20731 37.151631 57.824961 C 35.395323 59.441801 33.416843 61.863817 31.209701 65.097498 C 28.730114 68.801472 26.925155 71.794329 25.803746 74.081745 C 24.678282 76.365106 24.115551 78.218715 24.115551 79.635274 Z M 26.894343 130.001384 L 10.520793 130.001384 C 8.394737 130.001384 6.777086 127.842894 5.673515 123.527537 C 4.569945 119.212179 4.020997 112.975912 4.020997 104.817923 C 4.020997 96.030714 5.280252 87.528924 7.804436 79.313366 C 10.324567 71.097807 14.009893 63.422276 18.85717 56.288395 C 22.797104 50.574317 27.063811 45.816234 31.651616 42.014146 C 36.244286 38.208004 39.782848 36.309798 42.26649 36.309798 C 43.95955 36.309798 46.264805 37.4531 49.182253 39.736461 C 52.094836 42.023065 54.994446 45.038626 57.871351 48.782332 C 63.268387 55.796207 67.199402 63.637152 69.661151 72.30841 C 72.126954 80.974803 73.355396 91.459938 73.355396 103.754896 C 73.355396 108.481356 73.109707 113.113757 72.618331 117.64399 C 72.126954 122.178278 71.604765 125.32844 71.050141 127.101775 C 70.69742 128.28562 70.19307 129.063227 69.545199 129.437841 C 68.892462 129.813266 67.74024 130.001384 66.086912 130.001384 L 52.076997 130.001384 C 51.129921 130.001384 50.401776 129.920299 49.888506 129.764615 C 49.378479 129.60812 49.119817 129.371351 49.119817 129.054308 C 49.119817 128.736454 49.517135 127.615045 50.303662 125.685215 C 53.890875 116.661237 55.682049 109.017329 55.682049 102.749438 C 55.682049 99.831991 55.142021 97.835672 54.056289 96.74994 C 52.975422 95.664208 50.973427 95.12337 48.056789 95.12337 C 45.340433 95.12337 42.275409 95.431494 38.866584 96.039633 C 35.45857 96.651827 32.434089 97.428624 29.793142 98.3757 C 27.032999 99.398996 25.071546 100.663115 23.909594 102.159949 C 22.748453 103.656783 22.167882 105.666886 22.167882 108.186205 C 22.167882 112.40345 23.289292 116.875302 25.536165 121.606627 C 27.783038 126.333087 28.904447 128.817539 28.904447 129.054308 C 28.904447 129.407029 28.756872 129.656771 28.462532 129.791373 C 28.167382 129.929218 27.644382 130.001384 26.894343 130.001384 Z M 26.894343 130.001384 " stroke="#d40707" stroke-width="4.54" stroke-opacity="1" stroke-miterlimit="4"/><g clip-path="url(#daa639ff3e)"><g clip-path="url(#a10ff9cd0a)"><path fill="#ffffff" d="M 873.683594 148.007812 L 1059.613281 148.007812 L 1059.613281 355.714844 L 873.683594 355.714844 Z M 873.683594 148.007812 " fill-opacity="1" fill-rule="nonzero"/></g></g><g clip-path="url(#9f134afcc5)"><g clip-path="url(#5a9d5929a7)"><path fill="#ffffff" d="M 1166.339844 154.53125 L 1270.589844 154.53125 L 1270.589844 452.152344 L 1166.339844 452.152344 Z M 1166.339844 154.53125 " fill-opacity="1" fill-rule="nonzero"/></g></g><g clip-path="url(#228bb7e7c4)"><g clip-path="url(#815a6264b0)"><path fill="#d40707" d="M 648.351562 155.992188 L 797.21875 155.992188 L 797.21875 371.144531 L 648.351562 371.144531 Z M 648.351562 155.992188 " fill-opacity="1" fill-rule="nonzero"/></g></g><g clip-path="url(#d06343e2cb)"><g clip-path="url(#fa1af16045)"><path fill="#d40707" d="M 487.949219 516.828125 L 588.652344 516.828125 L 588.652344 603.042969 L 487.949219 603.042969 Z M 487.949219 516.828125 " fill-opacity="1" fill-rule="nonzero"/></g></g><path fill="#d40707" d="M 1363.753906 201.765625 C 1362.742188 197.699219 1360.308594 191.027344 1357.964844 186.011719 L 1351.226562 188.53125 C 1351.9375 190.253906 1352.710938 192.125 1353.335938 194.019531 L 1345.351562 195.117188 C 1351.617188 188.359375 1357.726562 180.289062 1362.503906 172.21875 L 1354.996094 167.375 C 1353.1875 170.882812 1351.054688 174.414062 1348.945312 177.792969 L 1342.597656 178.265625 C 1346.835938 172.691406 1350.90625 165.957031 1354.113281 159.371094 L 1345.824219 155.925781 C 1342.683594 164.234375 1337.347656 173.015625 1335.558594 175.210938 C 1333.902344 177.46875 1332.480469 178.976562 1330.847656 179.363281 C 1331.859375 181.621094 1333.191406 185.625 1333.667969 187.347656 C 1334.914062 186.808594 1336.722656 186.335938 1343.394531 185.539062 C 1341.027344 188.683594 1339.003906 190.964844 1337.96875 192.0625 C 1335.324219 194.945312 1333.429688 196.839844 1331.40625 197.226562 C 1332.332031 199.507812 1333.816406 203.726562 1334.289062 205.382812 C 1336.097656 204.523438 1338.917969 203.8125 1355.683594 201.058594 C 1356.089844 202.390625 1356.394531 203.660156 1356.628906 204.757812 Z M 1334.460938 207.878906 C 1333.988281 214.140625 1333.042969 221.136719 1331.234375 225.742188 C 1333.191406 226.214844 1337.046875 227.464844 1338.679688 228.347656 C 1340.335938 223.632812 1341.738281 216.1875 1342.210938 209.128906 Z M 1344.167969 208.675781 C 1345.03125 213.839844 1345.824219 220.664062 1345.976562 225.203125 L 1353.488281 223.546875 C 1353.25 219.09375 1352.324219 212.507812 1351.378906 207.253906 Z M 1353.1875 206.632812 C 1354.519531 211.023438 1356.15625 216.574219 1356.628906 220.253906 L 1363.839844 217.757812 C 1363.128906 214.140625 1361.492188 208.742188 1359.921875 204.523438 Z M 1373.007812 186.25 L 1373.007812 170.882812 C 1376.0625 170.433594 1379.121094 169.957031 1382.261719 169.398438 C 1382.328125 175.125 1382.414062 180.847656 1382.648438 186.25 Z M 1403.957031 194.878906 L 1403.957031 186.25 L 1391.257812 186.25 C 1391.109375 180.460938 1391.042969 174.175781 1391.195312 167.675781 C 1395.5 166.816406 1399.800781 165.804688 1403.503906 164.707031 L 1397.070312 157.175781 C 1388.847656 159.84375 1375.976562 162.511719 1364.398438 164.234375 L 1364.3125 164.234375 L 1364.3125 215.949219 C 1364.3125 219.628906 1362.742188 221.824219 1361.257812 222.921875 C 1362.589844 224.410156 1364.613281 227.875 1365.324219 229.832031 C 1366.980469 228.5625 1369.714844 227.25 1384.457031 222.300781 C 1383.984375 220.425781 1383.511719 216.746094 1383.359375 214.316406 L 1373.007812 217.371094 L 1373.007812 194.878906 L 1383.1875 194.878906 C 1384.523438 214.226562 1387.902344 228.648438 1395.972656 228.648438 C 1401.996094 228.648438 1404.582031 225.441406 1405.613281 212.828125 C 1403.417969 211.882812 1400.449219 210.160156 1398.640625 208.265625 C 1398.46875 216.101562 1398.015625 220.039062 1396.917969 220.039062 C 1394.488281 220.039062 1392.59375 209.6875 1391.667969 194.878906 Z M 1403.957031 194.878906 " fill-opacity="1" fill-rule="nonzero"/><path fill="#d40707" d="M 1393.511719 607.457031 L 1341.945312 607.457031 C 1335.964844 607.457031 1331.832031 606.832031 1329.550781 605.5625 C 1327.3125 604.3125 1325.546875 601.730469 1324.296875 597.816406 C 1321.027344 588.066406 1318.574219 572.398438 1316.980469 550.8125 C 1315.433594 529.246094 1314.65625 502.128906 1314.65625 469.457031 C 1314.65625 430.03125 1315.777344 392.5625 1318.015625 357.027344 C 1320.296875 321.453125 1323.652344 289.839844 1328.085938 262.160156 C 1329.636719 251.960938 1331.378906 245.675781 1333.339844 243.308594 C 1335.339844 240.960938 1339.234375 239.777344 1345.046875 239.777344 L 1397.042969 239.777344 C 1400.832031 239.777344 1403.605469 240.1875 1405.394531 240.984375 C 1407.222656 241.800781 1408.148438 243.050781 1408.148438 244.773438 C 1408.148438 247.140625 1406.792969 254.113281 1404.101562 265.691406 C 1392.328125 318.613281 1386.453125 369.039062 1386.453125 416.945312 C 1386.453125 470.621094 1391.964844 525.070312 1402.980469 580.339844 C 1405.15625 591.53125 1406.253906 598.308594 1406.253906 600.65625 C 1406.253906 603.023438 1405.261719 604.746094 1403.328125 605.820312 C 1401.367188 606.917969 1398.097656 607.457031 1393.511719 607.457031 Z M 1393.511719 607.457031 " fill-opacity="1" fill-rule="nonzero"/><g clip-path="url(#1abfc6bc41)"><g clip-path="url(#87c204046f)"><path fill="#ffffff" d="M 1328.117188 249.289062 L 1366.621094 249.289062 L 1366.621094 358.167969 L 1328.117188 358.167969 Z M 1328.117188 249.289062 " fill-opacity="1" fill-rule="nonzero"/></g></g><g clip-path="url(#ce10837085)"><g clip-path="url(#9096d9eec9)"><path fill="#ffffff" d="M 1328.355469 482.910156 L 1397.503906 482.910156 L 1397.503906 601.753906 L 1328.355469 601.753906 Z M 1328.355469 482.910156 " fill-opacity="1" fill-rule="nonzero"/></g></g><path fill="#d40707" d="M 233.089844 608.554688 L 167.402344 608.554688 C 160.902344 608.554688 155.824219 607.390625 152.167969 605.023438 C 148.550781 602.613281 145.730469 598.460938 143.730469 592.539062 C 140.394531 582.101562 137.703125 562.925781 135.636719 535.035156 C 133.570312 507.097656 132.539062 473.804688 132.539062 435.171875 C 132.539062 392.367188 133.785156 350.355469 136.328125 309.140625 C 138.910156 267.886719 142.652344 228.714844 147.605469 191.632812 L 147.863281 189.480469 C 151.414062 161.308594 157.71875 147.210938 166.800781 147.210938 C 167.015625 147.210938 167.511719 147.167969 168.265625 147.039062 C 169.0625 146.933594 170.074219 146.78125 171.277344 146.609375 L 236.703125 146.609375 C 241.976562 146.609375 245.699219 147.296875 247.894531 148.675781 C 250.070312 150.054688 251.167969 152.441406 251.167969 155.820312 C 251.167969 160.125 246.519531 182.507812 237.21875 222.96875 C 227.964844 263.429688 223.359375 298.253906 223.359375 327.390625 C 223.359375 334.753906 224.242188 340.542969 226.027344 344.78125 C 227.792969 348.980469 230.355469 351.066406 233.691406 351.066406 C 242 351.066406 255.515625 338.410156 274.238281 313.101562 C 293.003906 287.75 311.363281 256.113281 329.332031 218.234375 C 337.984375 200.285156 344.398438 181.949219 348.53125 163.222656 C 350.875 152.335938 356.214844 146.78125 364.542969 146.609375 L 418.347656 146.609375 C 423.683594 146.609375 427.773438 147.511719 430.65625 149.277344 C 433.519531 151.066406 434.960938 153.625 434.960938 156.941406 C 434.960938 164.644531 431.605469 176.695312 424.890625 193.097656 C 418.175781 209.453125 409.179688 227.101562 397.945312 246.039062 C 389.679688 260.050781 378.574219 277.011719 364.628906 296.917969 C 350.726562 316.847656 343.796875 329.78125 343.796875 335.742188 C 343.796875 339.488281 352.664062 352.316406 370.398438 374.222656 C 388.175781 396.089844 402.789062 419.246094 414.214844 443.695312 C 425.277344 467.175781 433.929688 492.054688 440.128906 518.332031 C 446.324219 544.570312 449.425781 569.015625 449.425781 591.679688 C 449.425781 598.394531 448.476562 602.914062 446.585938 605.195312 C 444.734375 607.433594 441.441406 608.554688 436.683594 608.554688 L 358.257812 608.554688 C 353.308594 608.554688 350.101562 607.648438 348.617188 605.796875 C 347.175781 603.902344 346.464844 600.375 346.464844 595.210938 L 346.464844 575.152344 C 346.464844 536.238281 338.996094 497.757812 324.082031 459.707031 C 309.210938 421.613281 297.050781 402.546875 287.582031 402.546875 C 284.417969 402.546875 279.359375 405.558594 272.429688 411.585938 C 265.542969 417.613281 255.988281 427.339844 243.761719 440.769531 C 239.222656 446.105469 235.863281 451.660156 233.691406 457.382812 C 231.496094 463.066406 230.417969 469.867188 230.417969 477.785156 C 230.417969 500.644531 233.476562 525.910156 239.632812 553.628906 C 245.765625 581.347656 248.84375 596.414062 248.84375 598.824219 C 248.84375 601.578125 247.25 603.902344 244.105469 605.796875 C 240.945312 607.648438 237.261719 608.554688 233.089844 608.554688 Z M 233.089844 608.554688 " fill-opacity="1" fill-rule="nonzero"/><g clip-path="url(#f7cc66bdc8)"><g clip-path="url(#188a43691b)"><path fill="#ffffff" d="M 137.75 145.273438 L 242.195312 145.273438 L 242.195312 368.84375 L 137.75 368.84375 Z M 137.75 145.273438 " fill-opacity="1" fill-rule="nonzero"/></g></g><g clip-path="url(#995e414d3d)"><g clip-path="url(#aca3a984c6)"><path fill="#ffffff" d="M 357.59375 452.199219 L 452.632812 452.199219 L 452.632812 611.457031 L 357.59375 611.457031 Z M 357.59375 452.199219 " fill-opacity="1" fill-rule="nonzero"/></g></g><path stroke-linecap="butt" transform="matrix(4.132179, 0, 0, 4.13218, 148.616857, 643.67645)" fill="none" stroke-linejoin="miter" d="M 0.000079969 2.000144 L 304.999584 2.000144 " stroke="#d40707" stroke-width="4" stroke-opacity="1" stroke-miterlimit="4"/></svg>