<svg version="1.1" id="Layer_1" xmlns="http://www.w3.org/2000/svg" xmlns:xlink="http://www.w3.org/1999/xlink" x="0px" y="0px"
	 width="100%" viewBox="0 0 1080 566" enable-background="new 0 0 1080 566" xml:space="preserve">
<path fill="#111111" opacity="1.000000" stroke="none" 
	d="
M788.000000,567.000000 
	C525.333435,567.000000 263.166809,567.000000 1.000176,567.000000 
	C1.000117,378.333466 1.000117,189.666931 1.000059,1.000302 
	C360.999756,1.000202 720.999512,1.000202 1080.999512,1.000101 
	C1080.999634,189.666367 1080.999634,378.332733 1080.999756,566.999512 
	C983.500000,567.000000 886.000000,567.000000 788.000000,567.000000 
M941.283691,146.938828 
	C939.520752,146.958542 937.757812,146.978256 935.211121,146.949310 
	C934.060181,150.701050 932.909241,154.452774 931.667297,158.501099 
	C933.785217,159.090317 935.119934,159.461624 937.094788,160.011047 
	C937.759399,155.993698 938.347107,152.440994 939.641907,148.642059 
	C940.119141,148.753372 940.596375,148.864685 941.094788,149.753830 
	C941.322266,151.820435 941.549805,153.887039 941.690674,156.463699 
	C942.578491,156.806793 943.466309,157.149887 945.121643,157.319763 
	C948.965698,154.965408 946.133240,151.861099 946.782532,149.002197 
	C948.870972,151.133606 949.222839,155.073318 953.242432,155.911606 
	C953.840454,157.528915 954.438477,159.146225 955.013916,160.702499 
	C968.813110,157.013168 968.813110,157.013168 967.384216,151.566086 
	C965.375122,151.809265 963.329224,152.056915 961.145325,152.321259 
	C961.145325,147.028564 961.145325,142.291824 961.145325,137.424805 
	C963.600647,137.424805 965.659546,137.424805 967.900085,137.424805 
	C968.212463,139.551880 968.353455,141.381546 968.765381,143.148026 
	C969.853821,147.815125 970.629089,152.633255 972.443481,157.012375 
	C973.113342,158.629013 977.707886,160.485886 978.167114,160.002991 
	C980.244934,157.817947 981.891357,154.964798 982.812256,152.071869 
	C983.153015,151.001434 981.077759,149.161942 979.557373,146.836594 
	C978.685364,150.325287 978.200134,152.266296 977.714966,154.207291 
	C977.149170,154.195175 976.583374,154.183060 976.017578,154.170944 
	C975.237183,148.651550 974.456787,143.132141 973.639465,137.351837 
	C977.033875,137.098984 979.307800,136.929581 981.718628,136.750000 
	C981.718628,134.783798 981.718628,133.118835 981.718628,131.338303 
	C978.820862,131.147125 976.373901,130.985687 973.403381,130.789703 
	C973.403381,126.754791 972.595947,122.714920 973.726196,119.320206 
	C974.339294,117.478714 978.252075,116.735840 980.638367,115.516823 
	C979.389587,111.463821 976.815002,110.900642 972.960205,112.112640 
	C968.858337,113.402344 964.586121,114.510414 960.323547,114.827339 
	C956.045532,115.145416 954.307617,116.823395 954.122009,120.988609 
	C953.701294,121.014267 953.280640,121.039925 952.235229,120.765770 
	C950.975586,120.067764 949.715942,119.369751 948.743591,118.830948 
	C945.551331,120.483582 946.139587,126.127701 940.724609,124.875290 
	C942.928101,120.699738 944.990845,116.791008 947.266113,112.479393 
	C945.238892,111.702736 943.657715,111.096977 942.353882,110.597435 
	C939.325378,115.561256 936.476501,119.854958 934.055481,124.377693 
	C933.039978,126.274712 932.930664,128.656830 932.304382,131.253738 
	C935.450989,131.253738 937.082092,131.253738 939.685059,131.253738 
	C937.658447,133.520676 935.886658,135.036057 934.740601,136.930084 
	C933.799988,138.484436 933.603333,140.488953 933.076904,142.293915 
	C934.811218,142.667038 936.542297,143.333511 938.280457,143.352356 
	C941.920288,143.391876 945.563843,143.090286 948.986938,143.604736 
	C947.678040,144.483017 946.369141,145.361298 944.424683,146.263199 
	C943.608459,146.480270 942.792236,146.697342 941.283691,146.938828 
M615.324646,112.958351 
	C613.934387,118.263367 611.732178,123.501663 611.289795,128.884567 
	C608.973206,157.076340 605.793030,185.285172 605.370056,213.524857 
	C604.656616,261.162811 605.476013,308.833832 606.302734,356.479614 
	C606.622742,374.920807 608.498230,393.349976 610.079102,411.749054 
	C611.167664,424.417877 615.363403,427.974121 627.940308,428.043304 
	C642.273071,428.122162 656.606689,428.050690 670.939636,428.103638 
	C681.625610,428.143127 685.222290,429.766388 680.694946,414.653931 
	C673.855774,391.824341 668.512146,368.704926 664.704590,345.143707 
	C657.625549,301.338776 655.948975,257.350830 658.638184,213.149429 
	C658.998596,207.225952 660.246826,201.239517 661.961243,195.546402 
	C663.895996,189.121292 668.222046,188.208588 673.318726,192.665558 
	C675.302429,194.400253 677.327515,196.376312 678.532043,198.664490 
	C684.491455,209.985321 690.758606,221.196716 695.854797,232.908997 
	C708.586487,262.169708 715.933472,293.139801 724.060181,323.876984 
	C726.361938,332.582916 730.132141,341.290375 735.025940,348.830811 
	C742.551941,360.426880 754.706116,359.683777 761.197205,347.520477 
	C764.988220,340.416687 767.609558,332.519287 769.660278,324.691589 
	C773.870605,308.621002 776.773804,292.197723 781.248840,276.208984 
	C788.530457,250.192963 797.733276,224.848465 811.714050,201.527328 
	C813.407715,198.702103 815.519409,196.017151 817.882874,193.726898 
	C822.699890,189.059143 827.315308,190.129608 829.850586,196.447144 
	C831.017578,199.355179 832.160828,202.487411 832.292603,205.561813 
	C833.233582,227.512939 834.766968,249.488068 834.442078,271.430817 
	C834.084778,295.555847 832.635864,319.719513 830.387817,343.747040 
	C827.900574,370.330750 821.137390,396.134064 812.968689,421.543976 
	C811.100769,427.354523 811.603027,428.010193 817.566895,428.033691 
	C834.566406,428.100677 851.566345,428.098511 868.565979,428.065582 
	C877.696289,428.047913 881.360962,425.312683 884.139038,416.484802 
	C884.886108,414.110687 885.464050,411.663269 885.883606,409.209167 
	C891.115540,378.604675 892.966736,347.679565 893.992371,316.723846 
	C895.576904,268.895660 895.133728,221.059052 891.880005,173.306534 
	C890.659851,155.399124 888.332336,137.543610 885.867676,119.753380 
	C884.392029,109.102318 879.498596,105.514519 868.857910,105.459679 
	C857.525024,105.401260 846.187500,105.638557 834.859497,105.397629 
	C824.256348,105.172112 815.434204,109.079056 808.917603,117.072197 
	C798.934753,129.317245 788.581848,141.450012 780.226379,154.783737 
	C770.174194,170.825104 762.069214,188.084961 753.067383,204.788300 
	C751.852173,207.043228 750.324158,209.129593 748.281128,212.326675 
	C746.269287,208.950241 744.640930,206.698318 743.501892,204.221375 
	C738.911743,194.240265 734.675720,184.092560 729.935669,174.184982 
	C720.218933,153.875504 709.894409,133.906235 695.143616,116.622955 
	C689.321960,109.801964 682.101074,105.830826 673.018433,105.738441 
	C657.689941,105.582512 642.357727,105.650276 627.033081,105.334930 
	C621.508362,105.221245 617.671143,107.043381 615.324646,112.958351 
M114.957771,105.002266 
	C113.010567,107.612953 110.475334,109.978523 109.259949,112.894257 
	C107.615196,116.840050 106.616623,121.152519 105.973198,125.403397 
	C99.082741,170.926239 95.184784,216.767120 94.506065,262.750122 
	C93.943466,300.867126 95.144745,339.029480 96.417633,377.143250 
	C96.836563,389.687225 99.370346,402.259064 101.981529,414.597137 
	C103.762726,423.013397 108.092178,425.806763 116.767296,425.941925 
	C132.593582,426.188568 148.425812,426.053772 164.255569,426.076538 
	C164.421829,426.076752 164.588165,426.056519 164.754410,426.045013 
	C172.689758,425.495850 175.101852,422.589905 173.914047,414.876068 
	C173.534485,412.411133 172.982590,409.971344 172.467560,407.528900 
	C167.627319,384.574829 162.359558,361.716614 161.859222,338.062836 
	C161.598251,325.725677 164.918930,315.083984 173.615005,306.245087 
	C178.872757,300.900970 184.018570,295.437927 189.446381,290.271729 
	C201.626511,278.678741 206.651917,279.281403 214.800369,294.230011 
	C231.946075,325.684296 241.915482,359.249725 243.059235,395.220917 
	C243.308075,403.046936 243.233643,410.882935 243.452698,418.710266 
	C243.573914,423.041077 245.263840,426.067932 250.301422,426.055145 
	C269.296478,426.006989 288.291718,426.047485 307.286804,426.018799 
	C311.695709,426.012115 314.037415,423.584869 314.499908,419.317474 
	C314.732422,417.171814 314.903748,414.995514 314.823669,412.843445 
	C312.868042,360.273712 296.706177,312.606812 265.403076,270.211578 
	C258.478302,260.833069 251.400528,251.565811 244.288055,242.328293 
	C240.823471,237.828552 240.516434,233.262222 243.393524,228.463242 
	C246.815216,222.755890 250.278244,217.072693 253.780960,211.414673 
	C265.605133,192.314880 278.212219,173.646881 289.011017,153.985046 
	C295.503967,142.163040 299.833801,129.003464 303.918274,116.060783 
	C306.640228,107.435623 303.317871,104.067497 294.237244,103.945816 
	C282.407806,103.787292 270.574738,103.856323 258.743439,103.897179 
	C250.100189,103.927025 247.195206,106.115181 245.022202,114.574646 
	C234.308975,156.281219 213.086014,192.643295 187.579117,226.720245 
	C182.654160,233.299927 176.425690,239.102829 170.029190,244.320969 
	C164.632874,248.723175 159.910324,246.535248 158.135635,239.768265 
	C157.468399,237.224106 156.867081,234.490311 157.084137,231.914459 
	C158.536133,214.683075 159.263885,197.314270 162.062683,180.291916 
	C165.646912,158.492416 171.014450,136.988495 175.499939,115.333664 
	C177.428726,106.021904 175.712738,103.951782 166.117126,103.892174 
	C151.453323,103.801071 136.788315,103.842995 122.124306,103.919449 
	C119.990540,103.930580 117.859390,104.445488 114.957771,105.002266 
M416.615173,384.794373 
	C411.751862,372.816284 408.626678,360.516571 408.868103,347.438812 
	C409.051697,337.495789 412.908752,330.069458 422.199432,325.956207 
	C445.456268,315.659760 469.911255,311.619293 495.200134,312.569000 
	C502.527161,312.844147 505.258331,315.878540 506.075287,323.151672 
	C507.564270,336.408112 506.009460,349.547180 502.393280,362.202271 
	C497.466125,379.445435 491.434753,396.373138 485.870331,413.434021 
	C482.908417,422.515381 486.352112,428.618347 495.930298,428.950745 
	C515.055908,429.614380 534.224609,429.949127 553.348267,429.424744 
	C565.669128,429.086945 571.062500,423.647949 573.817688,411.439941 
	C578.524963,390.582733 580.268188,369.341766 580.891663,348.048462 
	C581.666931,321.570984 580.484924,295.168152 577.038696,268.843018 
	C570.552734,219.296982 553.127808,174.462311 520.762512,135.976654 
	C509.462158,122.539360 497.077576,110.222397 480.946320,102.419220 
	C473.662140,98.895630 466.015228,97.781227 458.769165,101.449928 
	C449.913910,105.933357 440.830872,110.494568 433.121429,116.625519 
	C391.573334,149.666534 364.849304,193.004593 347.917633,242.713989 
	C332.893066,286.824310 329.944824,332.269196 334.484497,378.359070 
	C335.775269,391.463928 337.826263,404.449860 343.824799,416.467255 
	C348.276886,425.386505 355.080017,430.093292 365.276489,429.815125 
	C373.433716,429.592621 381.602081,429.789062 389.765503,429.779633 
	C399.261536,429.768707 408.770111,430.034424 418.250397,429.636200 
	C429.774048,429.152100 433.679413,422.866028 429.164795,412.285370 
	C425.312836,403.257690 421.023163,394.416779 416.615173,384.794373 
M920.605591,356.101837 
	C921.061035,366.586578 921.036316,377.120697 922.107300,387.542175 
	C923.174988,397.931549 925.023621,408.277588 927.257141,418.483459 
	C927.793091,420.932343 931.139343,424.492584 933.311646,424.579468 
	C948.437317,425.184509 963.594910,425.107056 978.740784,425.012299 
	C982.331482,424.989868 984.127686,422.606720 983.585449,418.916412 
	C983.052917,415.292358 982.492432,411.666290 981.759399,408.078827 
	C976.051636,380.144287 972.662720,351.922333 970.913086,323.475128 
	C969.077820,293.634918 969.796875,263.859161 974.084229,234.292801 
	C976.875549,215.042801 980.940369,195.977478 984.434448,176.829376 
	C985.626221,170.298035 984.651123,168.986160 978.073730,168.941467 
	C966.077942,168.859955 954.081177,168.874924 942.085083,168.914169 
	C933.974182,168.940720 932.208130,169.887924 930.953003,177.876587 
	C928.527344,193.314850 926.330078,208.815155 924.816040,224.365494 
	C920.581238,267.859467 919.565369,311.481689 920.605591,356.101837 
M261.500000,451.053040 
	C209.563507,451.053040 157.627029,451.053040 105.408302,451.053040 
	C105.408302,455.008026 105.408302,458.232849 105.408302,461.594055 
	C398.935364,461.594055 692.132690,461.594055 985.266296,461.594055 
	C986.894348,451.079285 986.894348,451.079315 976.988464,451.058899 
	C976.321777,451.057526 975.655151,451.055908 974.988464,451.055908 
	C737.492310,451.054871 499.996155,451.053925 261.500000,451.053040 
z"/>
<path fill="#D20706" opacity="1.000000" stroke="none" 
	d="
M615.488831,112.615768 
	C617.671143,107.043381 621.508362,105.221245 627.033081,105.334930 
	C642.357727,105.650276 657.689941,105.582512 673.018433,105.738441 
	C682.101074,105.830826 689.321960,109.801964 695.143616,116.622955 
	C709.894409,133.906235 720.218933,153.875504 729.935669,174.184982 
	C734.675720,184.092560 738.911743,194.240265 743.501892,204.221375 
	C744.640930,206.698318 746.269287,208.950241 748.281128,212.326675 
	C750.324158,209.129593 751.852173,207.043228 753.067383,204.788300 
	C762.069214,188.084961 770.174194,170.825104 780.226379,154.783737 
	C788.581848,141.450012 798.934753,129.317245 808.917603,117.072197 
	C815.434204,109.079056 824.256348,105.172112 834.859497,105.397629 
	C846.187500,105.638557 857.525024,105.401260 868.857910,105.459679 
	C879.498596,105.514519 884.392029,109.102318 885.867676,119.753380 
	C888.332336,137.543610 890.659851,155.399124 891.880005,173.306534 
	C895.133728,221.059052 895.576904,268.895660 893.992371,316.723846 
	C892.966736,347.679565 891.115540,378.604675 885.883606,409.209167 
	C885.464050,411.663269 884.886108,414.110687 884.139038,416.484802 
	C881.360962,425.312683 877.696289,428.047913 868.565979,428.065582 
	C851.566345,428.098511 834.566406,428.100677 817.566895,428.033691 
	C811.603027,428.010193 811.100769,427.354523 812.968689,421.543976 
	C821.137390,396.134064 827.900574,370.330750 830.387817,343.747040 
	C832.635864,319.719513 834.084778,295.555847 834.442078,271.430817 
	C834.766968,249.488068 833.233582,227.512939 832.292603,205.561813 
	C832.160828,202.487411 831.017578,199.355179 829.850586,196.447144 
	C827.315308,190.129608 822.699890,189.059143 817.882874,193.726898 
	C815.519409,196.017151 813.407715,198.702103 811.714050,201.527328 
	C797.733276,224.848465 788.530457,250.192963 781.248840,276.208984 
	C776.773804,292.197723 773.870605,308.621002 769.660278,324.691589 
	C767.609558,332.519287 764.988220,340.416687 761.197205,347.520477 
	C754.706116,359.683777 742.551941,360.426880 735.025940,348.830811 
	C730.132141,341.290375 726.361938,332.582916 724.060181,323.876984 
	C715.933472,293.139801 708.586487,262.169708 695.854797,232.908997 
	C690.758606,221.196716 684.491455,209.985321 678.532043,198.664490 
	C677.327515,196.376312 675.302429,194.400253 673.318726,192.665558 
	C668.222046,188.208588 663.895996,189.121292 661.961243,195.546402 
	C660.246826,201.239517 658.998596,207.225952 658.638184,213.149429 
	C655.948975,257.350830 657.625549,301.338776 664.704590,345.143707 
	C668.512146,368.704926 673.855774,391.824341 680.694946,414.653931 
	C685.222290,429.766388 681.625610,428.143127 670.939636,428.103638 
	C656.606689,428.050690 642.273071,428.122162 627.940308,428.043304 
	C615.363403,427.974121 611.167664,424.417877 610.079102,411.749054 
	C608.498230,393.349976 606.622742,374.920807 606.302734,356.479614 
	C605.476013,308.833832 604.656616,261.162811 605.370056,213.524857 
	C605.793030,185.285172 608.973206,157.076340 611.289795,128.884567 
	C611.732178,123.501663 613.934387,118.263367 615.488831,112.615768 
M864.978455,262.500000 
	C865.380554,272.979797 865.577209,283.473846 866.302124,293.931244 
	C866.538696,297.345490 866.617432,302.553375 871.146851,302.624237 
	C875.725708,302.695892 875.882446,297.577545 876.142273,294.096161 
	C876.922607,283.640991 877.959717,273.138977 877.704651,262.684326 
	C876.749939,223.556824 875.372498,184.439102 873.998901,145.323135 
	C873.836792,140.707520 872.852539,136.100464 872.002808,131.535339 
	C871.232971,127.400291 868.388123,125.330582 864.301819,124.982826 
	C856.027466,124.278671 847.750122,123.603424 839.467834,123.001045 
	C837.485352,122.856850 835.342041,122.628067 833.529236,123.221687 
	C832.237732,123.644623 830.820190,125.258179 830.532166,126.575081 
	C830.361084,127.357414 832.093811,129.030167 833.290161,129.516342 
	C834.751404,130.110168 836.557312,130.062592 838.197083,129.974258 
	C845.175415,129.598343 852.152039,129.165207 859.119934,128.631104 
	C863.155823,128.321747 864.946960,130.091125 865.004761,134.070709 
	C865.074951,138.900162 865.481384,143.727600 865.465210,148.554977 
	C865.338989,186.203445 865.146240,223.851669 864.978455,262.500000 
M657.814087,125.122055 
	C662.144531,125.024872 666.490051,125.121147 670.801758,124.784195 
	C676.937561,124.304703 680.891663,126.564560 682.989624,132.571808 
	C688.198669,147.487167 693.537903,162.360229 699.065857,177.160278 
	C705.932251,195.543671 712.971008,213.864136 720.166931,232.120468 
	C720.802917,233.734116 723.148865,234.673737 724.700623,235.926437 
	C725.775208,234.102448 727.663757,232.310181 727.736389,230.447159 
	C727.849304,227.547913 727.007996,224.508377 726.079468,221.690323 
	C722.800415,211.738922 719.533325,201.773544 715.856873,191.965195 
	C708.446167,172.194519 700.803101,152.510498 693.185852,132.817810 
	C690.224426,125.161659 684.446045,121.403915 676.297668,121.009155 
	C661.493713,120.291962 646.694397,119.482506 631.890991,118.753586 
	C630.746216,118.697212 629.396301,118.646263 628.481934,119.177895 
	C627.461792,119.771057 626.258972,120.995583 626.192383,122.014328 
	C626.127258,123.011208 627.164124,124.538734 628.128357,125.035370 
	C629.530518,125.757637 631.308472,126.064026 632.913696,126.025620 
	C640.902039,125.834503 648.886230,125.472336 657.814087,125.122055 
z"/>
<path fill="#D20706" opacity="1.000000" stroke="none" 
	d="
M115.342407,104.864777 
	C117.859390,104.445488 119.990540,103.930580 122.124306,103.919449 
	C136.788315,103.842995 151.453323,103.801071 166.117126,103.892174 
	C175.712738,103.951782 177.428726,106.021904 175.499939,115.333664 
	C171.014450,136.988495 165.646912,158.492416 162.062683,180.291916 
	C159.263885,197.314270 158.536133,214.683075 157.084137,231.914459 
	C156.867081,234.490311 157.468399,237.224106 158.135635,239.768265 
	C159.910324,246.535248 164.632874,248.723175 170.029190,244.320969 
	C176.425690,239.102829 182.654160,233.299927 187.579117,226.720245 
	C213.086014,192.643295 234.308975,156.281219 245.022202,114.574646 
	C247.195206,106.115181 250.100189,103.927025 258.743439,103.897179 
	C270.574738,103.856323 282.407806,103.787292 294.237244,103.945816 
	C303.317871,104.067497 306.640228,107.435623 303.918274,116.060783 
	C299.833801,129.003464 295.503967,142.163040 289.011017,153.985046 
	C278.212219,173.646881 265.605133,192.314880 253.780960,211.414673 
	C250.278244,217.072693 246.815216,222.755890 243.393524,228.463242 
	C240.516434,233.262222 240.823471,237.828552 244.288055,242.328293 
	C251.400528,251.565811 258.478302,260.833069 265.403076,270.211578 
	C296.706177,312.606812 312.868042,360.273712 314.823669,412.843445 
	C314.903748,414.995514 314.732422,417.171814 314.499908,419.317474 
	C314.037415,423.584869 311.695709,426.012115 307.286804,426.018799 
	C288.291718,426.047485 269.296478,426.006989 250.301422,426.055145 
	C245.263840,426.067932 243.573914,423.041077 243.452698,418.710266 
	C243.233643,410.882935 243.308075,403.046936 243.059235,395.220917 
	C241.915482,359.249725 231.946075,325.684296 214.800369,294.230011 
	C206.651917,279.281403 201.626511,278.678741 189.446381,290.271729 
	C184.018570,295.437927 178.872757,300.900970 173.615005,306.245087 
	C164.918930,315.083984 161.598251,325.725677 161.859222,338.062836 
	C162.359558,361.716614 167.627319,384.574829 172.467560,407.528900 
	C172.982590,409.971344 173.534485,412.411133 173.914047,414.876068 
	C175.101852,422.589905 172.689758,425.495850 164.754410,426.045013 
	C164.588165,426.056519 164.421829,426.076752 164.255569,426.076538 
	C148.425812,426.053772 132.593582,426.188568 116.767296,425.941925 
	C108.092178,425.806763 103.762726,423.013397 101.981529,414.597137 
	C99.370346,402.259064 96.836563,389.687225 96.417633,377.143250 
	C95.144745,339.029480 93.943466,300.867126 94.506065,262.750122 
	C95.184784,216.767120 99.082741,170.926239 105.973198,125.403397 
	C106.616623,121.152519 107.615196,116.840050 109.259949,112.894257 
	C110.475334,109.978523 113.010567,107.612953 115.342407,104.864777 
M137.147385,136.669220 
	C141.858505,133.664093 146.556213,130.637650 151.286026,127.662224 
	C153.924545,126.002380 158.099960,125.800255 157.503159,121.125916 
	C156.908020,116.464676 153.646255,114.469337 149.498642,114.456612 
	C142.714905,114.435791 135.893646,114.674667 129.157166,115.423889 
	C124.644310,115.925812 121.797935,118.961731 121.018341,123.666855 
	C120.148460,128.916840 118.896568,134.117981 118.294914,139.395554 
	C115.170631,166.801376 112.105644,194.214935 109.258148,221.650513 
	C108.694717,227.079147 108.827858,232.645462 109.291412,238.092834 
	C109.612648,241.867752 111.737221,245.691055 115.860626,245.798172 
	C120.241402,245.912003 121.810379,241.962875 122.128815,238.113129 
	C122.456711,234.149017 122.176346,230.138611 122.293015,226.152298 
	C122.822853,208.049194 122.874878,189.910751 124.138443,171.857803 
	C125.013374,159.357452 128.373138,147.266693 137.147385,136.669220 
M267.066193,404.242340 
	C265.721222,406.498566 263.027161,409.015442 263.399048,410.939911 
	C263.795288,412.990356 267.054016,415.916412 269.128204,415.970703 
	C278.997498,416.229065 288.910156,415.929962 298.762390,415.211761 
	C302.830231,414.915253 305.072784,411.518433 305.105225,407.404633 
	C305.141754,402.776703 305.511688,397.942017 304.373962,393.550293 
	C299.335419,374.101349 293.792419,354.783325 288.469666,335.407593 
	C287.420746,331.589355 284.772736,328.654572 281.145935,329.411224 
	C276.855316,330.306366 276.714539,334.628723 277.147400,338.453491 
	C277.220612,339.100403 277.503418,339.731232 277.738190,340.350983 
	C280.030609,346.403229 282.600677,352.365753 284.575287,358.519531 
	C288.220367,369.879333 292.171539,381.205200 294.756531,392.820831 
	C296.880219,402.363403 294.508514,404.209442 284.613708,404.006622 
	C279.012238,403.891815 273.407532,403.935730 267.066193,404.242340 
z"/>
<path fill="#D00706" opacity="1.000000" stroke="none" 
	d="
M416.771118,385.143799 
	C421.023163,394.416779 425.312836,403.257690 429.164795,412.285370 
	C433.679413,422.866028 429.774048,429.152100 418.250397,429.636200 
	C408.770111,430.034424 399.261536,429.768707 389.765503,429.779633 
	C381.602081,429.789062 373.433716,429.592621 365.276489,429.815125 
	C355.080017,430.093292 348.276886,425.386505 343.824799,416.467255 
	C337.826263,404.449860 335.775269,391.463928 334.484497,378.359070 
	C329.944824,332.269196 332.893066,286.824310 347.917633,242.713989 
	C364.849304,193.004593 391.573334,149.666534 433.121429,116.625519 
	C440.830872,110.494568 449.913910,105.933357 458.769165,101.449928 
	C466.015228,97.781227 473.662140,98.895630 480.946320,102.419220 
	C497.077576,110.222397 509.462158,122.539360 520.762512,135.976654 
	C553.127808,174.462311 570.552734,219.296982 577.038696,268.843018 
	C580.484924,295.168152 581.666931,321.570984 580.891663,348.048462 
	C580.268188,369.341766 578.524963,390.582733 573.817688,411.439941 
	C571.062500,423.647949 565.669128,429.086945 553.348267,429.424744 
	C534.224609,429.949127 515.055908,429.614380 495.930298,428.950745 
	C486.352112,428.618347 482.908417,422.515381 485.870331,413.434021 
	C491.434753,396.373138 497.466125,379.445435 502.393280,362.202271 
	C506.009460,349.547180 507.564270,336.408112 506.075287,323.151672 
	C505.258331,315.878540 502.527161,312.844147 495.200134,312.569000 
	C469.911255,311.619293 445.456268,315.659760 422.199432,325.956207 
	C412.908752,330.069458 409.051697,337.495789 408.868103,347.438812 
	C408.626678,360.516571 411.751862,372.816284 416.771118,385.143799 
M565.977966,325.505280 
	C565.022766,309.895294 564.375916,294.259003 563.046570,278.680939 
	C560.475525,248.550552 553.023804,219.611588 539.738403,192.403336 
	C526.520508,165.333496 509.521820,141.004028 485.331482,122.424599 
	C471.083496,111.481392 465.683105,111.635162 450.958313,121.826889 
	C423.565308,140.786835 402.956360,165.765884 386.170502,194.205933 
	C365.805084,228.710815 353.667877,265.987946 349.252991,305.708191 
	C346.633362,329.276733 346.878998,352.988342 349.348938,376.549408 
	C350.432678,386.887054 353.304779,397.077209 355.885376,407.201691 
	C357.244904,412.535492 360.912476,415.103241 367.050049,414.904449 
	C380.533051,414.467651 394.040405,414.792847 407.537720,414.771759 
	C409.292999,414.769012 411.047913,414.558350 413.722534,414.384064 
	C410.161072,406.424011 406.863800,399.224945 403.708008,391.964447 
	C397.755859,378.270325 394.036377,364.162659 393.807556,349.020447 
	C393.524078,330.257874 402.483215,317.929932 419.074280,311.042511 
	C428.076874,307.305298 437.645508,304.694824 447.173248,302.512146 
	C463.428131,298.788300 479.899902,296.359711 496.693573,297.940918 
	C510.537537,299.244354 518.325256,305.572754 520.291809,319.362793 
	C521.521973,327.989716 521.252136,337.001709 520.406494,345.719757 
	C518.285767,367.583038 511.471466,388.298615 503.538269,408.666168 
	C502.848755,410.436462 502.392700,412.297668 501.612579,414.811371 
	C504.247253,414.811371 506.048706,414.811890 507.850159,414.811310 
	C521.347534,414.807007 534.845032,414.824188 548.342346,414.790558 
	C557.714539,414.767212 558.323792,414.394043 560.040161,405.043152 
	C564.805481,379.081360 566.400330,352.864838 565.977966,325.505280 
z"/>
<path fill="#D10706" opacity="1.000000" stroke="none" 
	d="
M920.592773,355.629944 
	C919.565369,311.481689 920.581238,267.859467 924.816040,224.365494 
	C926.330078,208.815155 928.527344,193.314850 930.953003,177.876587 
	C932.208130,169.887924 933.974182,168.940720 942.085083,168.914169 
	C954.081177,168.874924 966.077942,168.859955 978.073730,168.941467 
	C984.651123,168.986160 985.626221,170.298035 984.434448,176.829376 
	C980.940369,195.977478 976.875549,215.042801 974.084229,234.292801 
	C969.796875,263.859161 969.077820,293.634918 970.913086,323.475128 
	C972.662720,351.922333 976.051636,380.144287 981.759399,408.078827 
	C982.492432,411.666290 983.052917,415.292358 983.585449,418.916412 
	C984.127686,422.606720 982.331482,424.989868 978.740784,425.012299 
	C963.594910,425.107056 948.437317,425.184509 933.311646,424.579468 
	C931.139343,424.492584 927.793091,420.932343 927.257141,418.483459 
	C925.023621,408.277588 923.174988,397.931549 922.107300,387.542175 
	C921.036316,377.120697 921.061035,366.586578 920.592773,355.629944 
M966.797974,380.605255 
	C966.103027,371.808197 965.504211,363.001923 964.660583,354.219147 
	C964.369690,351.190796 965.813293,346.577393 961.113831,346.402252 
	C959.886719,346.356506 957.329468,351.605469 957.330688,354.421844 
	C957.335083,364.895233 957.905396,375.388092 958.748108,385.834534 
	C959.314331,392.853638 960.697571,399.806824 961.742493,406.976227 
	C954.751892,406.976227 948.268982,406.739716 941.824646,407.134125 
	C940.104370,407.239410 938.502136,409.274536 936.845703,410.423676 
	C938.385376,411.620697 939.858948,413.741058 941.475952,413.856720 
	C948.921997,414.389496 956.416687,414.664124 963.877258,414.450867 
	C970.982483,414.247803 971.652283,412.907471 970.487610,405.706268 
	C969.185669,397.656372 968.082397,389.574371 966.797974,380.605255 
M942.896240,242.118561 
	C943.295105,240.020752 943.883179,237.938889 944.061462,235.822510 
	C945.066345,223.892365 945.900269,211.947495 946.956482,200.022171 
	C947.277954,196.392700 948.470215,192.821304 948.594177,189.200409 
	C948.669800,186.992096 947.468018,184.740036 946.840027,182.507645 
	C945.014343,184.089706 942.643677,185.357513 941.503479,187.334839 
	C940.134949,189.708069 939.459229,192.640244 939.103210,195.410004 
	C937.662720,206.617340 936.278442,217.839005 935.272766,229.091080 
	C934.938293,232.832642 935.431396,236.760422 936.225769,240.457031 
	C936.928223,243.725937 939.066467,245.435516 942.896240,242.118561 
z"/>
<path fill="#D10706" opacity="1.000000" stroke="none" 
	d="
M262.000000,451.053040 
	C499.996155,451.053925 737.492310,451.054871 974.988464,451.055908 
	C975.655151,451.055908 976.321777,451.057526 976.988464,451.058899 
	C986.894348,451.079315 986.894348,451.079285 985.266296,461.594055 
	C692.132690,461.594055 398.935364,461.594055 105.408302,461.594055 
	C105.408302,458.232849 105.408302,455.008026 105.408302,451.053040 
	C157.627029,451.053040 209.563507,451.053040 262.000000,451.053040 
z"/>
<path fill="#CB0606" opacity="1.000000" stroke="none" 
	d="
M954.753845,120.967690 
	C954.307617,116.823395 956.045532,115.145416 960.323547,114.827339 
	C964.586121,114.510414 968.858337,113.402344 972.960205,112.112640 
	C976.815002,110.900642 979.389587,111.463821 980.638367,115.516823 
	C978.252075,116.735840 974.339294,117.478714 973.726196,119.320206 
	C972.595947,122.714920 973.403381,126.754791 973.403381,130.789703 
	C976.373901,130.985687 978.820862,131.147125 981.718628,131.338303 
	C981.718628,133.118835 981.718628,134.783798 981.718628,136.750000 
	C979.307800,136.929581 977.033875,137.098984 973.639465,137.351837 
	C974.456787,143.132141 975.237183,148.651550 976.017578,154.170944 
	C976.583374,154.183060 977.149170,154.195175 977.714966,154.207291 
	C978.200134,152.266296 978.685364,150.325287 979.557373,146.836594 
	C981.077759,149.161942 983.153015,151.001434 982.812256,152.071869 
	C981.891357,154.964798 980.244934,157.817947 978.167114,160.002991 
	C977.707886,160.485886 973.113342,158.629013 972.443481,157.012375 
	C970.629089,152.633255 969.853821,147.815125 968.765381,143.148026 
	C968.353455,141.381546 968.212463,139.551880 967.900085,137.424805 
	C965.659546,137.424805 963.600647,137.424805 961.145325,137.424805 
	C961.145325,142.291824 961.145325,147.028564 961.145325,152.321259 
	C963.329224,152.056915 965.375122,151.809265 967.384216,151.566086 
	C968.813110,157.013168 968.813110,157.013168 955.013916,160.702499 
	C954.438477,159.146225 953.840454,157.528915 953.214294,155.488083 
	C953.186157,155.064560 953.052368,155.116547 953.357117,155.077942 
	C953.861511,154.684616 954.061157,154.329910 954.453003,153.611145 
	C954.731689,148.777481 954.818176,144.307907 954.902649,139.380981 
	C954.851685,132.938309 954.802734,126.952995 954.753845,120.967690 
M964.601440,119.655472 
	C960.248718,120.746429 959.448547,123.674347 961.624268,130.848663 
	C963.363098,130.848663 965.144226,130.848663 966.865967,130.848663 
	C968.344910,124.924545 967.896118,121.697174 964.601440,119.655472 
z"/>
<path fill="#C80706" opacity="1.000000" stroke="none" 
	d="
M949.205872,142.928772 
	C945.563843,143.090286 941.920288,143.391876 938.280457,143.352356 
	C936.542297,143.333511 934.811218,142.667038 933.076904,142.293915 
	C933.603333,140.488953 933.799988,138.484436 934.740601,136.930084 
	C935.886658,135.036057 937.658447,133.520676 939.685059,131.253738 
	C937.082092,131.253738 935.450989,131.253738 932.304382,131.253738 
	C932.930664,128.656830 933.039978,126.274712 934.055481,124.377693 
	C936.476501,119.854958 939.325378,115.561256 942.353882,110.597435 
	C943.657715,111.096977 945.238892,111.702736 947.266113,112.479393 
	C944.990845,116.791008 942.928101,120.699738 940.724609,124.875290 
	C946.139587,126.127701 945.551331,120.483582 948.743591,118.830948 
	C949.715942,119.369751 950.975586,120.067764 952.503479,121.257256 
	C950.850830,124.928589 948.929993,128.108429 946.743530,131.727936 
	C952.034180,131.188614 951.605164,135.389694 952.918213,138.424881 
	C951.656677,140.165253 950.431274,141.547012 949.205872,142.928772 
z"/>
<path fill="#970D0D" opacity="1.000000" stroke="none" 
	d="
M949.096436,143.266754 
	C950.431274,141.547012 951.656677,140.165253 953.092468,138.628601 
	C953.836731,138.928574 954.370728,139.383469 954.904724,139.838348 
	C954.818176,144.307907 954.731689,148.777481 954.144531,153.688019 
	C953.446655,154.458160 953.249512,154.787354 953.052368,155.116547 
	C953.052368,155.116547 953.186157,155.064560 953.211304,155.132263 
	C949.222839,155.073318 948.870972,151.133606 946.306519,148.754639 
	C945.573730,147.751236 945.316956,146.995407 945.060242,146.239563 
	C946.369141,145.361298 947.678040,144.483017 949.096436,143.266754 
z"/>
<path fill="#261111" opacity="1.000000" stroke="none" 
	d="
M954.902649,139.380981 
	C954.370728,139.383469 953.836731,138.928574 953.128540,138.269958 
	C951.605164,135.389694 952.034180,131.188614 946.743530,131.727936 
	C948.929993,128.108429 950.850830,124.928589 952.815796,121.407166 
	C953.280640,121.039925 953.701294,121.014267 954.437927,120.978149 
	C954.802734,126.952995 954.851685,132.938309 954.902649,139.380981 
z"/>
<path fill="#C80706" opacity="1.000000" stroke="none" 
	d="
M938.934875,148.888306 
	C938.347107,152.440994 937.759399,155.993698 937.094788,160.011047 
	C935.119934,159.461624 933.785217,159.090317 931.667297,158.501099 
	C932.909241,154.452774 934.060181,150.701050 935.855469,147.122040 
	C937.311523,147.825928 938.123169,148.357117 938.934875,148.888306 
z"/>
<path fill="#C10706" opacity="1.000000" stroke="none" 
	d="
M944.742432,146.251389 
	C945.316956,146.995407 945.573730,147.751236 945.939636,148.786270 
	C946.133240,151.861099 948.965698,154.965408 944.409424,157.225662 
	C943.057251,156.738922 942.417236,156.346283 941.777344,155.953644 
	C941.549805,153.887039 941.322266,151.820435 941.204956,149.110962 
	C941.535400,147.950195 941.755737,147.432297 941.976013,146.914413 
	C942.792236,146.697342 943.608459,146.480270 944.742432,146.251389 
z"/>
<path fill="#970D0D" opacity="1.000000" stroke="none" 
	d="
M941.629883,146.926620 
	C941.755737,147.432297 941.535400,147.950195 941.194336,148.722046 
	C940.596375,148.864685 940.119141,148.753372 939.288391,148.765182 
	C938.123169,148.357117 937.311523,147.825928 936.247314,147.146362 
	C937.757812,146.978256 939.520752,146.958542 941.629883,146.926620 
z"/>
<path fill="#970D0D" opacity="1.000000" stroke="none" 
	d="
M941.734009,156.208679 
	C942.417236,156.346283 943.057251,156.738922 944.025635,157.312271 
	C943.466309,157.149887 942.578491,156.806793 941.734009,156.208679 
z"/>
<path fill="#171111" opacity="1.000000" stroke="none" 
	d="
M864.976196,262.000000 
	C865.146240,223.851669 865.338989,186.203445 865.465210,148.554977 
	C865.481384,143.727600 865.074951,138.900162 865.004761,134.070709 
	C864.946960,130.091125 863.155823,128.321747 859.119934,128.631104 
	C852.152039,129.165207 845.175415,129.598343 838.197083,129.974258 
	C836.557312,130.062592 834.751404,130.110168 833.290161,129.516342 
	C832.093811,129.030167 830.361084,127.357414 830.532166,126.575081 
	C830.820190,125.258179 832.237732,123.644623 833.529236,123.221687 
	C835.342041,122.628067 837.485352,122.856850 839.467834,123.001045 
	C847.750122,123.603424 856.027466,124.278671 864.301819,124.982826 
	C868.388123,125.330582 871.232971,127.400291 872.002808,131.535339 
	C872.852539,136.100464 873.836792,140.707520 873.998901,145.323135 
	C875.372498,184.439102 876.749939,223.556824 877.704651,262.684326 
	C877.959717,273.138977 876.922607,283.640991 876.142273,294.096161 
	C875.882446,297.577545 875.725708,302.695892 871.146851,302.624237 
	C866.617432,302.553375 866.538696,297.345490 866.302124,293.931244 
	C865.577209,283.473846 865.380554,272.979797 864.976196,262.000000 
z"/>
<path fill="#171010" opacity="1.000000" stroke="none" 
	d="
M657.343018,125.146225 
	C648.886230,125.472336 640.902039,125.834503 632.913696,126.025620 
	C631.308472,126.064026 629.530518,125.757637 628.128357,125.035370 
	C627.164124,124.538734 626.127258,123.011208 626.192383,122.014328 
	C626.258972,120.995583 627.461792,119.771057 628.481934,119.177895 
	C629.396301,118.646263 630.746216,118.697212 631.890991,118.753586 
	C646.694397,119.482506 661.493713,120.291962 676.297668,121.009155 
	C684.446045,121.403915 690.224426,125.161659 693.185852,132.817810 
	C700.803101,152.510498 708.446167,172.194519 715.856873,191.965195 
	C719.533325,201.773544 722.800415,211.738922 726.079468,221.690323 
	C727.007996,224.508377 727.849304,227.547913 727.736389,230.447159 
	C727.663757,232.310181 725.775208,234.102448 724.700623,235.926422 
	C723.148865,234.673737 720.802917,233.734116 720.166931,232.120468 
	C712.971008,213.864136 705.932251,195.543671 699.065857,177.160278 
	C693.537903,162.360229 688.198669,147.487167 682.989624,132.571808 
	C680.891663,126.564560 676.937561,124.304703 670.801758,124.784195 
	C666.490051,125.121147 662.144531,125.024872 657.343018,125.146225 
z"/>
<path fill="#151111" opacity="1.000000" stroke="none" 
	d="
M136.920929,136.947983 
	C128.373138,147.266693 125.013374,159.357452 124.138443,171.857803 
	C122.874878,189.910751 122.822853,208.049194 122.293015,226.152298 
	C122.176346,230.138611 122.456711,234.149017 122.128815,238.113129 
	C121.810379,241.962875 120.241402,245.912003 115.860626,245.798172 
	C111.737221,245.691055 109.612648,241.867752 109.291412,238.092834 
	C108.827858,232.645462 108.694717,227.079147 109.258148,221.650513 
	C112.105644,194.214935 115.170631,166.801376 118.294914,139.395554 
	C118.896568,134.117981 120.148460,128.916840 121.018341,123.666855 
	C121.797935,118.961731 124.644310,115.925812 129.157166,115.423889 
	C135.893646,114.674667 142.714905,114.435791 149.498642,114.456612 
	C153.646255,114.469337 156.908020,116.464676 157.503159,121.125916 
	C158.099960,125.800255 153.924545,126.002380 151.286026,127.662224 
	C146.556213,130.637650 141.858505,133.664093 136.920929,136.947983 
z"/>
<path fill="#151111" opacity="1.000000" stroke="none" 
	d="
M267.435242,404.075226 
	C273.407532,403.935730 279.012238,403.891815 284.613708,404.006622 
	C294.508514,404.209442 296.880219,402.363403 294.756531,392.820831 
	C292.171539,381.205200 288.220367,369.879333 284.575287,358.519531 
	C282.600677,352.365753 280.030609,346.403229 277.738190,340.350983 
	C277.503418,339.731232 277.220612,339.100403 277.147400,338.453491 
	C276.714539,334.628723 276.855316,330.306366 281.145935,329.411224 
	C284.772736,328.654572 287.420746,331.589355 288.469666,335.407593 
	C293.792419,354.783325 299.335419,374.101349 304.373962,393.550293 
	C305.511688,397.942017 305.141754,402.776703 305.105225,407.404633 
	C305.072784,411.518433 302.830231,414.915253 298.762390,415.211761 
	C288.910156,415.929962 278.997498,416.229065 269.128204,415.970703 
	C267.054016,415.916412 263.795288,412.990356 263.399048,410.939911 
	C263.027161,409.015442 265.721222,406.498566 267.435242,404.075226 
z"/>
<path fill="#131111" opacity="1.000000" stroke="none" 
	d="
M565.981689,326.004272 
	C566.400330,352.864838 564.805481,379.081360 560.040161,405.043152 
	C558.323792,414.394043 557.714539,414.767212 548.342346,414.790558 
	C534.845032,414.824188 521.347534,414.807007 507.850159,414.811310 
	C506.048706,414.811890 504.247253,414.811371 501.612579,414.811371 
	C502.392700,412.297668 502.848755,410.436462 503.538269,408.666168 
	C511.471466,388.298615 518.285767,367.583038 520.406494,345.719757 
	C521.252136,337.001709 521.521973,327.989716 520.291809,319.362793 
	C518.325256,305.572754 510.537537,299.244354 496.693573,297.940918 
	C479.899902,296.359711 463.428131,298.788300 447.173248,302.512146 
	C437.645508,304.694824 428.076874,307.305298 419.074280,311.042511 
	C402.483215,317.929932 393.524078,330.257874 393.807556,349.020447 
	C394.036377,364.162659 397.755859,378.270325 403.708008,391.964447 
	C406.863800,399.224945 410.161072,406.424011 413.722534,414.384064 
	C411.047913,414.558350 409.292999,414.769012 407.537720,414.771759 
	C394.040405,414.792847 380.533051,414.467651 367.050049,414.904449 
	C360.912476,415.103241 357.244904,412.535492 355.885376,407.201691 
	C353.304779,397.077209 350.432678,386.887054 349.348938,376.549408 
	C346.878998,352.988342 346.633362,329.276733 349.252991,305.708191 
	C353.667877,265.987946 365.805084,228.710815 386.170502,194.205933 
	C402.956360,165.765884 423.565308,140.786835 450.958313,121.826889 
	C465.683105,111.635162 471.083496,111.481392 485.331482,122.424599 
	C509.521820,141.004028 526.520508,165.333496 539.738403,192.403336 
	C553.023804,219.611588 560.475525,248.550552 563.046570,278.680939 
	C564.375916,294.259003 565.022766,309.895294 565.981689,326.004272 
M400.336426,251.687851 
	C400.724792,266.432678 407.803314,272.195953 422.322662,269.030487 
	C441.045410,264.948578 459.787506,261.369171 479.083313,261.710236 
	C484.731415,261.810089 490.397949,261.338501 496.044617,260.959198 
	C512.166382,259.876282 519.067505,251.654938 516.033752,235.858063 
	C514.386841,227.282471 511.817139,218.707138 508.357635,210.695648 
	C502.276886,196.613937 494.800171,183.143082 484.154266,171.897034 
	C474.571777,161.774368 464.138641,160.887573 452.858795,169.007431 
	C448.169281,172.383194 443.386597,176.127365 439.985474,180.700089 
	C430.465149,193.499924 421.277191,206.584641 412.670929,220.013794 
	C406.664948,229.385513 401.574432,239.407700 400.336426,251.687851 
M483.364685,135.135529 
	C479.405518,131.445572 475.446320,127.755630 471.504059,124.081451 
	C467.462616,128.304398 467.657684,128.588974 470.548126,131.019333 
	C476.093048,135.681625 482.019928,140.134155 486.597839,145.660004 
	C507.265350,170.606873 523.978088,197.801346 532.367004,229.526459 
	C533.547913,233.992065 535.446411,238.333466 537.554749,242.455093 
	C538.364502,244.038040 540.689575,244.845810 542.324219,246.006775 
	C543.039978,244.090454 544.502991,242.097260 544.315430,240.273880 
	C543.928406,236.511658 543.030273,232.701370 541.698364,229.152603 
	C528.574829,194.187592 510.393311,162.322174 483.364685,135.135529 
M394.068085,402.094574 
	C378.019043,401.854675 366.440430,395.718750 362.867981,378.727570 
	C362.637604,377.631775 360.575684,375.873962 360.037170,376.090881 
	C358.554932,376.687958 356.795410,377.935730 356.271637,379.344696 
	C353.813568,385.957153 355.766937,392.451508 357.473816,398.883453 
	C359.247894,405.568604 363.899384,408.936310 370.577240,409.019196 
	C378.185944,409.113617 385.806152,408.713409 393.411011,408.325378 
	C394.985748,408.245026 396.514954,407.273743 398.065155,406.713043 
	C397.000793,405.242218 395.936432,403.771423 394.068085,402.094574 
z"/>
<path fill="#191010" opacity="1.000000" stroke="none" 
	d="
M966.845337,381.055786 
	C968.082397,389.574371 969.185669,397.656372 970.487610,405.706268 
	C971.652283,412.907471 970.982483,414.247803 963.877258,414.450867 
	C956.416687,414.664124 948.921997,414.389496 941.475952,413.856720 
	C939.858948,413.741058 938.385376,411.620697 936.845703,410.423676 
	C938.502136,409.274536 940.104370,407.239410 941.824646,407.134125 
	C948.268982,406.739716 954.751892,406.976227 961.742493,406.976227 
	C960.697571,399.806824 959.314331,392.853638 958.748108,385.834534 
	C957.905396,375.388092 957.335083,364.895233 957.330688,354.421844 
	C957.329468,351.605469 959.886719,346.356506 961.113831,346.402252 
	C965.813293,346.577393 964.369690,351.190796 964.660583,354.219147 
	C965.504211,363.001923 966.103027,371.808197 966.845337,381.055786 
z"/>
<path fill="#1A1010" opacity="1.000000" stroke="none" 
	d="
M942.652100,242.438614 
	C939.066467,245.435516 936.928223,243.725937 936.225769,240.457031 
	C935.431396,236.760422 934.938293,232.832642 935.272766,229.091080 
	C936.278442,217.839005 937.662720,206.617340 939.103210,195.410004 
	C939.459229,192.640244 940.134949,189.708069 941.503479,187.334839 
	C942.643677,185.357513 945.014343,184.089706 946.840027,182.507629 
	C947.468018,184.740036 948.669800,186.992096 948.594177,189.200409 
	C948.470215,192.821304 947.277954,196.392700 946.956482,200.022171 
	C945.900269,211.947495 945.066345,223.892365 944.061462,235.822510 
	C943.883179,237.938889 943.295105,240.020752 942.652100,242.438614 
z"/>
<path fill="#261111" opacity="1.000000" stroke="none" 
	d="
M964.996704,119.623138 
	C967.896118,121.697174 968.344910,124.924545 966.865967,130.848663 
	C965.144226,130.848663 963.363098,130.848663 961.624268,130.848663 
	C959.448547,123.674347 960.248718,120.746429 964.996704,119.623138 
z"/>
<path fill="#111111" opacity="1.000000" stroke="none" 
	d="
M953.357117,155.077942 
	C953.249512,154.787354 953.446655,154.458160 953.952271,154.052094 
	C954.061157,154.329910 953.861511,154.684616 953.357117,155.077942 
z"/>
<path fill="#CF0706" opacity="1.000000" stroke="none" 
	d="
M400.347534,251.258453 
	C401.574432,239.407700 406.664948,229.385513 412.670929,220.013794 
	C421.277191,206.584641 430.465149,193.499924 439.985474,180.700089 
	C443.386597,176.127365 448.169281,172.383194 452.858795,169.007431 
	C464.138641,160.887573 474.571777,161.774368 484.154266,171.897034 
	C494.800171,183.143082 502.276886,196.613937 508.357635,210.695648 
	C511.817139,218.707138 514.386841,227.282471 516.033752,235.858063 
	C519.067505,251.654938 512.166382,259.876282 496.044617,260.959198 
	C490.397949,261.338501 484.731415,261.810089 479.083313,261.710236 
	C459.787506,261.369171 441.045410,264.948578 422.322662,269.030487 
	C407.803314,272.195953 400.724792,266.432678 400.347534,251.258453 
M426.601349,253.091080 
	C446.918762,248.104691 467.558350,246.377731 488.445312,246.436249 
	C503.297485,246.477859 503.674988,245.670792 500.119934,231.420578 
	C495.975006,214.805954 487.143585,200.539734 477.493378,186.735947 
	C470.270355,176.404037 465.871918,176.067856 456.721283,184.566849 
	C456.233704,185.019714 455.738556,185.467926 455.286530,185.955063 
	C439.531036,202.934692 427.271179,222.246384 417.582947,243.196243 
	C416.004089,246.610397 415.790497,250.655884 414.703094,255.488205 
	C419.357483,254.565735 422.571381,253.928757 426.601349,253.091080 
z"/>
<path fill="#CA0606" opacity="1.000000" stroke="none" 
	d="
M483.614624,135.384918 
	C510.393311,162.322174 528.574829,194.187592 541.698364,229.152603 
	C543.030273,232.701370 543.928406,236.511658 544.315430,240.273880 
	C544.502991,242.097260 543.039978,244.090454 542.324219,246.006775 
	C540.689575,244.845810 538.364502,244.038040 537.554749,242.455093 
	C535.446411,238.333466 533.547913,233.992065 532.367004,229.526459 
	C523.978088,197.801346 507.265350,170.606873 486.597839,145.660004 
	C482.019928,140.134155 476.093048,135.681625 470.548126,131.019333 
	C467.657684,128.588974 467.462616,128.304398 471.504059,124.081451 
	C475.446320,127.755630 479.405518,131.445572 483.614624,135.384918 
z"/>
<path fill="#CC0706" opacity="1.000000" stroke="none" 
	d="
M394.470062,402.197601 
	C395.936432,403.771423 397.000793,405.242218 398.065155,406.713043 
	C396.514954,407.273743 394.985748,408.245026 393.411011,408.325378 
	C385.806152,408.713409 378.185944,409.113617 370.577240,409.019196 
	C363.899384,408.936310 359.247894,405.568604 357.473816,398.883453 
	C355.766937,392.451508 353.813568,385.957153 356.271637,379.344696 
	C356.795410,377.935730 358.554932,376.687958 360.037170,376.090881 
	C360.575684,375.873962 362.637604,377.631775 362.867981,378.727570 
	C366.440430,395.718750 378.019043,401.854675 394.470062,402.197601 
z"/>
<path fill="#131111" opacity="1.000000" stroke="none" 
	d="
M426.193298,253.191437 
	C422.571381,253.928757 419.357483,254.565735 414.703094,255.488205 
	C415.790497,250.655884 416.004089,246.610397 417.582947,243.196243 
	C427.271179,222.246384 439.531036,202.934692 455.286530,185.955063 
	C455.738556,185.467926 456.233704,185.019714 456.721283,184.566849 
	C465.871918,176.067856 470.270355,176.404037 477.493378,186.735947 
	C487.143585,200.539734 495.975006,214.805954 500.119934,231.420578 
	C503.674988,245.670792 503.297485,246.477859 488.445312,246.436249 
	C467.558350,246.377731 446.918762,248.104691 426.193298,253.191437 
z"/>
</svg>