<svg xmlns="http://www.w3.org/2000/svg" xmlns:xlink="http://www.w3.org/1999/xlink" width="500" zoomAndPan="magnify" viewBox="0 0 375 374.999991" height="500" preserveAspectRatio="xMidYMid meet" version="1.0"><defs><g/><clipPath id="4bc7c17436"><path d="M 210.03125 148.476562 L 237 148.476562 L 237 179 L 210.03125 179 Z M 210.03125 148.476562 " clip-rule="nonzero"/></clipPath><clipPath id="af35031057"><path d="M 211.058594 148.515625 C 225.339844 148.878906 225.792969 149.332031 226.703125 150.515625 C 228.976562 153.515625 232.433594 164.066406 234.164062 169.160156 C 235.34375 172.617188 236.980469 176.621094 236.707031 178.074219 C 236.527344 178.53125 236.253906 178.894531 235.980469 178.894531 C 235.617188 178.984375 234.890625 178.4375 234.796875 178.164062 C 234.796875 177.800781 235.34375 177.074219 235.617188 177.074219 C 235.980469 176.984375 236.617188 177.621094 236.707031 177.894531 C 236.707031 178.257812 236.164062 178.984375 235.707031 178.894531 C 233.890625 178.53125 226.429688 153.972656 224.703125 151.152344 C 224.429688 150.605469 224.429688 150.425781 223.882812 150.242188 C 222.246094 149.425781 212.425781 150.96875 210.878906 150.152344 C 210.421875 149.878906 210.148438 149.515625 210.242188 149.242188 C 210.242188 148.96875 211.058594 148.515625 211.058594 148.515625 " clip-rule="nonzero"/></clipPath><clipPath id="4c9baa5da2"><path d="M 263.265625 149.589844 L 276 149.589844 L 276 196.367188 L 263.265625 196.367188 Z M 263.265625 149.589844 " clip-rule="nonzero"/></clipPath><clipPath id="78f2640529"><path d="M 264.175781 149.605469 C 272.816406 149.96875 273.273438 150.152344 273.816406 150.96875 C 274.820312 152.699219 274.636719 156.699219 274.910156 161.15625 C 275.363281 169.160156 276.273438 192.261719 274.910156 195.445312 C 274.636719 195.992188 274.273438 196.355469 273.910156 196.355469 C 273.636719 196.355469 273 195.539062 273.089844 195.265625 C 273.179688 194.992188 274.546875 194.628906 274.636719 194.808594 C 274.820312 194.902344 274.363281 196.265625 274.089844 196.355469 C 273.816406 196.355469 273.363281 196.082031 273.089844 195.445312 C 271.453125 191.808594 273.089844 156.425781 272.363281 152.335938 C 272.273438 151.699219 272.363281 151.425781 272 151.152344 C 271 150.515625 265.085938 151.878906 263.996094 151.242188 C 263.539062 151.0625 263.265625 150.605469 263.359375 150.332031 C 263.359375 150.0625 264.175781 149.605469 264.175781 149.605469 " clip-rule="nonzero"/></clipPath><clipPath id="0524693fb7"><path d="M 169.082031 149.714844 L 189.769531 149.714844 L 189.769531 181.90625 L 169.082031 181.90625 Z M 169.082031 149.714844 " clip-rule="nonzero"/></clipPath><clipPath id="6666e180d6"><path d="M 170.078125 149.730469 C 175.671875 154.367188 180.480469 160.835938 183.191406 165.734375 C 185.816406 170.453125 189.664062 178.671875 189.226562 180.683594 C 189.136719 181.296875 188.527344 181.734375 188.265625 181.734375 C 188 181.644531 187.5625 180.597656 187.738281 180.421875 C 187.828125 180.246094 189.050781 180.421875 189.226562 180.597656 C 189.3125 180.859375 188.875 181.644531 188.613281 181.734375 C 188.351562 181.820312 188 181.644531 187.652344 181.296875 C 186.339844 179.898438 184.589844 171.851562 182.144531 167.304688 C 179.433594 162.410156 174.359375 155.328125 171.824219 152.964844 C 170.777344 151.917969 169.378906 151.742188 169.203125 151.128906 C 169.113281 150.691406 170.078125 149.730469 170.078125 149.730469 " clip-rule="nonzero"/></clipPath><clipPath id="190fee823b"><path d="M 139.765625 215.085938 L 151.503906 215.085938 L 151.503906 224.625 L 139.765625 224.625 Z M 139.765625 215.085938 " clip-rule="nonzero"/></clipPath><clipPath id="fa6a949b14"><path d="M 142.097656 216.183594 C 143.757812 223.179688 149.703125 221.429688 150.753906 222.21875 C 151.191406 222.480469 151.363281 223.003906 151.277344 223.355469 C 151.191406 223.617188 150.664062 223.878906 150.402344 223.878906 C 150.140625 223.792969 149.617188 223.179688 149.617188 222.828125 C 149.703125 222.566406 150.402344 222.128906 150.664062 222.21875 C 150.929688 222.21875 151.453125 223.003906 151.277344 223.265625 C 150.929688 223.964844 143.757812 224.578125 141.921875 223.355469 C 140.699219 222.566406 140.261719 220.554688 140.085938 219.15625 C 139.824219 217.933594 139.996094 216.007812 140.523438 215.484375 C 140.785156 215.136719 141.398438 215.136719 141.660156 215.222656 C 141.921875 215.398438 142.097656 216.183594 142.097656 216.183594 " clip-rule="nonzero"/></clipPath><clipPath id="ce718de5d6"><path d="M 290.367188 165 L 294.1875 165 L 294.1875 181.074219 L 290.367188 181.074219 Z M 290.367188 165 " clip-rule="nonzero"/></clipPath><clipPath id="81b261b99b"><path d="M 294.160156 165.964844 C 292.390625 175.328125 293.183594 179.378906 292.625 180.449219 C 292.390625 180.871094 292.019531 181.054688 291.738281 181.054688 C 291.457031 181.007812 290.898438 180.355469 290.945312 180.078125 C 290.945312 179.796875 291.644531 179.332031 291.925781 179.332031 C 292.15625 179.332031 292.484375 179.613281 292.578125 179.796875 C 292.671875 180.03125 292.671875 180.402344 292.53125 180.636719 C 292.390625 180.824219 292.0625 181.054688 291.832031 181.054688 C 291.550781 181.054688 291.179688 180.871094 290.992188 180.449219 C 290.386719 179.332031 290.761719 174.675781 291.085938 172.066406 C 291.367188 169.738281 291.878906 166.382812 292.625 165.5 C 292.902344 165.125 293.320312 164.941406 293.601562 165.03125 C 293.882812 165.125 294.160156 165.964844 294.160156 165.964844 " clip-rule="nonzero"/></clipPath><clipPath id="3821fc9e87"><path d="M 290.941406 207.382812 L 300 207.382812 L 300 225.523438 L 290.941406 225.523438 Z M 290.941406 207.382812 " clip-rule="nonzero"/></clipPath><clipPath id="b0b0ab39ae"><path d="M 298.109375 208.164062 C 298.527344 220.15625 300.238281 223.628906 299.777344 224.601562 C 299.636719 224.972656 299.128906 225.203125 298.851562 225.160156 C 298.574219 225.113281 298.203125 224.464844 298.203125 224.464844 C 298.203125 224.464844 299.128906 225.066406 299.128906 225.203125 C 299.082031 225.296875 298.621094 225.25 298.15625 225.25 C 296.953125 225.296875 292.785156 225.484375 291.71875 225.019531 C 291.300781 224.789062 290.976562 224.464844 290.976562 224.1875 C 290.976562 223.953125 291.582031 223.492188 291.8125 223.492188 C 292.042969 223.492188 292.320312 223.675781 292.414062 223.90625 C 292.507812 224.09375 292.460938 224.648438 292.273438 224.789062 C 292.089844 224.972656 291.582031 225.019531 291.347656 224.878906 C 291.164062 224.789062 290.976562 224.511719 290.976562 224.277344 C 291.023438 224 291.300781 223.675781 291.765625 223.492188 C 292.691406 223.074219 295.933594 223.445312 297.136719 223.539062 C 297.738281 223.539062 298.109375 223.492188 298.527344 223.628906 C 298.988281 223.816406 299.777344 224.324219 299.777344 224.601562 C 299.777344 224.835938 299.3125 225.160156 299.035156 225.160156 C 298.804688 225.203125 298.574219 225.066406 298.339844 224.835938 C 297.832031 224.1875 297.367188 222.242188 297.089844 220.34375 C 296.582031 217.285156 295.980469 209.738281 296.628906 208.164062 C 296.8125 207.699219 297.183594 207.421875 297.460938 207.421875 C 297.691406 207.46875 298.109375 208.164062 298.109375 208.164062 " clip-rule="nonzero"/></clipPath><clipPath id="f701888887"><path d="M 76 147.101562 L 88.800781 147.101562 L 88.800781 181.683594 L 76 181.683594 Z M 76 147.101562 " clip-rule="nonzero"/></clipPath><clipPath id="010cce62dd"><path d="M 87.265625 150.664062 C 79.15625 152.980469 79.734375 164.984375 79.320312 170.53125 C 79.070312 174.421875 79.984375 179.054688 79.15625 180.546875 C 78.824219 181.207031 78.160156 181.621094 77.746094 181.539062 C 77.25 181.457031 76.421875 180.464844 76.339844 179.96875 C 76.339844 179.554688 76.753906 178.972656 77.085938 178.808594 C 77.582031 178.640625 78.492188 178.808594 78.824219 179.140625 C 79.15625 179.386719 79.320312 180.050781 79.238281 180.378906 C 79.070312 180.878906 78.328125 181.539062 77.914062 181.539062 C 77.417969 181.539062 76.671875 180.878906 76.339844 180.132812 C 75.679688 178.558594 76.257812 175.414062 76.421875 172.101562 C 76.835938 166.722656 78.328125 154.140625 79.070312 150.664062 C 79.320312 149.503906 79.320312 149.007812 79.734375 148.511719 C 80.148438 148.011719 80.808594 147.765625 81.722656 147.597656 C 83.128906 147.351562 86.9375 147.101562 87.929688 147.847656 C 88.507812 148.261719 88.757812 149.171875 88.675781 149.667969 C 88.507812 150.082031 87.265625 150.664062 87.265625 150.664062 " clip-rule="nonzero"/></clipPath><clipPath id="0e6fa384e5"><path d="M 116 203.027344 L 127.214844 203.027344 L 127.214844 226 L 116 226 Z M 116 203.027344 " clip-rule="nonzero"/></clipPath><clipPath id="7200cb39c5"><path d="M 122.382812 204.011719 C 126.792969 217.714844 127.1875 221.183594 127.027344 222.914062 C 126.949219 223.78125 126.871094 224.332031 126.476562 224.804688 C 126.003906 225.277344 125.214844 225.59375 124.191406 225.75 C 122.460938 226.066406 118.050781 226.222656 116.867188 225.355469 C 116.316406 224.882812 116 223.859375 116.238281 223.386719 C 116.394531 222.992188 117.339844 222.601562 117.8125 222.601562 C 118.207031 222.679688 118.679688 223.152344 118.835938 223.464844 C 118.996094 223.859375 118.914062 224.492188 118.679688 224.804688 C 118.363281 225.199219 117.496094 225.515625 117.023438 225.433594 C 116.632812 225.277344 116.160156 224.804688 116.082031 224.410156 C 116.082031 223.9375 116.472656 223.074219 117.183594 222.601562 C 118.441406 221.890625 123.089844 223.386719 124.113281 222.207031 C 125.136719 220.945312 123.957031 217.796875 123.40625 215.273438 C 122.695312 212.046875 119.46875 206.53125 119.703125 204.640625 C 119.859375 203.855469 120.332031 203.222656 120.804688 203.144531 C 121.199219 203.066406 122.382812 204.011719 122.382812 204.011719 " clip-rule="nonzero"/></clipPath></defs><g fill="#d40707" fill-opacity="1"><g transform="translate(196.473068, 228.91522)"><g><path d="M 26.890625 0 L 14.40625 0 C 12.726562 0 11.609375 -0.238281 11.046875 -0.71875 C 10.492188 -1.207031 10.070312 -2.113281 9.78125 -3.4375 C 9.382812 -5.300781 9.015625 -10.175781 8.671875 -18.0625 C 8.335938 -25.945312 8.171875 -34.785156 8.171875 -44.578125 C 8.171875 -51.742188 8.367188 -58.488281 8.765625 -64.8125 C 9.160156 -71.144531 9.609375 -75.742188 10.109375 -78.609375 C 10.140625 -78.753906 10.175781 -78.914062 10.21875 -79.09375 C 10.820312 -82.320312 11.789062 -83.9375 13.125 -83.9375 L 25.4375 -83.9375 C 27.507812 -83.9375 29.21875 -83.378906 30.5625 -82.265625 C 31.90625 -81.160156 33.582031 -79.03125 35.59375 -75.875 C 38.03125 -71.96875 40.21875 -67.742188 42.15625 -63.203125 C 44.09375 -58.671875 45.238281 -56.40625 45.59375 -56.40625 C 45.957031 -56.40625 47.238281 -58.707031 49.4375 -63.3125 C 51.644531 -67.914062 54.179688 -72.101562 57.046875 -75.875 C 59.453125 -79.0625 61.363281 -81.203125 62.78125 -82.296875 C 64.195312 -83.390625 65.691406 -83.9375 67.265625 -83.9375 L 77.75 -83.9375 C 79.726562 -83.9375 80.96875 -82.554688 81.46875 -79.796875 C 81.5 -79.472656 81.550781 -79.1875 81.625 -78.9375 C 82.269531 -75.457031 82.769531 -70.335938 83.125 -63.578125 C 83.488281 -56.828125 83.671875 -49.148438 83.671875 -40.546875 C 83.671875 -33.441406 83.472656 -26.804688 83.078125 -20.640625 C 82.679688 -14.484375 82.160156 -9.519531 81.515625 -5.75 C 81.441406 -5.46875 81.367188 -5.09375 81.296875 -4.625 C 80.796875 -1.539062 79.507812 0 77.4375 0 L 63.78125 0 C 63.0625 0 62.582031 -0.0507812 62.34375 -0.15625 C 62.113281 -0.269531 62 -0.46875 62 -0.75 C 62 -0.863281 62.421875 -2.265625 63.265625 -4.953125 C 64.109375 -7.640625 64.832031 -10.398438 65.4375 -13.234375 C 66.300781 -17.316406 66.9375 -21.632812 67.34375 -26.1875 C 67.757812 -30.738281 67.96875 -37.03125 67.96875 -45.0625 L 67.96875 -47.703125 C 67.96875 -52.640625 67.742188 -56.203125 67.296875 -58.390625 C 66.847656 -60.578125 66.101562 -61.671875 65.0625 -61.671875 C 63.914062 -61.671875 62.347656 -59.726562 60.359375 -55.84375 C 58.367188 -51.957031 56.457031 -47.035156 54.625 -41.078125 C 53.59375 -37.640625 52.554688 -33.375 51.515625 -28.28125 C 50.222656 -21.757812 48.25 -18.5 45.59375 -18.5 C 42.625 -18.5 40.332031 -21.941406 38.71875 -28.828125 C 37.644531 -33.453125 36.640625 -37.285156 35.703125 -40.328125 C 33.484375 -47.171875 31.40625 -52.472656 29.46875 -56.234375 C 27.53125 -60.003906 25.898438 -61.890625 24.578125 -61.890625 C 23.640625 -61.890625 22.984375 -60.671875 22.609375 -58.234375 C 22.234375 -55.796875 22.046875 -51.515625 22.046875 -45.390625 C 22.046875 -30.796875 23.984375 -17.117188 27.859375 -4.359375 C 28.359375 -2.640625 28.609375 -1.632812 28.609375 -1.34375 C 28.609375 -0.84375 28.484375 -0.492188 28.234375 -0.296875 C 27.984375 -0.0976562 27.535156 0 26.890625 0 Z M 26.890625 0 "/></g></g></g><path stroke-linecap="butt" transform="matrix(0.874379, 0, 0, 0.874379, 132.558541, 113.614965)" fill="none" stroke-linejoin="miter" d="M 24.115393 79.634959 C 24.115393 80.818835 24.303026 81.618509 24.678292 82.029516 C 25.053558 82.444989 25.790689 82.650492 26.894151 82.650492 C 26.934358 82.650492 28.926843 82.226084 32.86714 81.381734 C 36.807437 80.532917 41.024716 80.108509 45.514511 80.108509 C 49.298446 80.108509 51.701938 79.871734 52.729453 79.402651 C 53.752501 78.929101 54.266258 77.96413 54.266258 76.503271 C 54.266258 74.926259 53.868655 73.005253 53.082382 70.740252 C 52.291643 68.475252 51.228388 66.201316 49.888151 63.913978 C 47.958209 60.603593 46.412469 58.356462 45.250931 57.177053 C 44.089392 55.993177 42.932321 55.403473 41.793119 55.403473 C 40.452882 55.403473 38.907142 56.207615 37.151431 57.824835 C 35.395721 59.442054 33.416638 61.863416 31.209714 65.097854 C 28.730275 68.801376 26.925423 71.794572 25.804091 74.08191 C 24.678292 76.36478 24.115393 78.218775 24.115393 79.634959 Z M 26.894151 130.001067 L 10.520922 130.001067 C 8.394412 130.001067 6.777193 127.843285 5.673731 123.527722 C 4.570269 119.212158 4.020772 112.975589 4.020772 104.818013 C 4.020772 96.030525 5.280595 87.528955 7.804708 79.313302 C 10.324353 71.097649 14.010005 63.422558 18.857196 56.288029 C 22.797493 50.574152 27.063914 45.816311 31.651992 42.014505 C 36.244538 38.208232 39.782763 36.309563 42.266669 36.309563 C 43.959836 36.309563 46.265043 37.453232 49.182293 39.736102 C 52.095074 42.02344 54.994454 45.038973 57.871496 48.782702 C 63.268184 55.796609 67.199546 63.636996 69.661114 72.30833 C 72.127151 80.975196 73.355701 91.460317 73.355701 103.754758 C 73.355701 108.481327 73.109991 113.11408 72.618571 117.644081 C 72.127151 122.17855 71.604458 125.328107 71.050494 127.101687 C 70.697564 128.285563 70.192742 129.062901 69.544961 129.438167 C 68.892712 129.813433 67.740108 130.001067 66.087149 130.001067 L 52.077205 130.001067 C 51.130104 130.001067 50.401908 129.920652 49.888151 129.764291 C 49.378861 129.60793 49.119748 129.371155 49.119748 129.053966 C 49.119748 128.736776 49.517352 127.615445 50.303624 125.685503 C 53.890992 116.661241 55.682442 109.017422 55.682442 102.74958 C 55.682442 99.832331 55.14188 97.835378 54.056288 96.749786 C 52.975163 95.664194 50.973743 95.123631 48.056493 95.123631 C 45.34028 95.123631 42.275604 95.431886 38.866935 96.03946 C 35.458265 96.651502 32.433797 97.428839 29.79353 98.37594 C 27.032642 99.398988 25.071428 100.663278 23.90989 102.159876 C 22.748351 103.656474 22.167581 105.666829 22.167581 108.186475 C 22.167581 112.403754 23.288913 116.875678 25.536044 121.606715 C 27.783175 126.333284 28.904506 128.81719 28.904506 129.053966 C 28.904506 129.406895 28.75708 129.657072 28.462228 129.791096 C 28.167376 129.929587 27.644683 130.001067 26.894151 130.001067 Z M 26.894151 130.001067 " stroke="#d40707" stroke-width="4.540012" stroke-opacity="1" stroke-miterlimit="4"/><g clip-path="url(#4bc7c17436)"><g clip-path="url(#af35031057)"><path fill="#ffffff" d="M 206.601562 144.785156 L 240.347656 144.785156 L 240.347656 182.484375 L 206.601562 182.484375 Z M 206.601562 144.785156 " fill-opacity="1" fill-rule="nonzero"/></g></g><g clip-path="url(#4c9baa5da2)"><g clip-path="url(#78f2640529)"><path fill="#ffffff" d="M 259.71875 145.96875 L 278.640625 145.96875 L 278.640625 199.988281 L 259.71875 199.988281 Z M 259.71875 145.96875 " fill-opacity="1" fill-rule="nonzero"/></g></g><g clip-path="url(#0524693fb7)"><g clip-path="url(#6666e180d6)"><path fill="#d40707" d="M 165.703125 146.234375 L 192.722656 146.234375 L 192.722656 185.285156 L 165.703125 185.285156 Z M 165.703125 146.234375 " fill-opacity="1" fill-rule="nonzero"/></g></g><g clip-path="url(#190fee823b)"><g clip-path="url(#fa6a949b14)"><path fill="#d40707" d="M 136.589844 211.726562 L 154.867188 211.726562 L 154.867188 227.375 L 136.589844 227.375 Z M 136.589844 211.726562 " fill-opacity="1" fill-rule="nonzero"/></g></g><g fill="#d40707" fill-opacity="1"><g transform="translate(289.222164, 158.35529)"><g><path d="M 6.328125 -3.8125 C 6.144531 -4.550781 5.703125 -5.761719 5.277344 -6.671875 L 4.054688 -6.214844 C 4.183594 -5.902344 4.324219 -5.5625 4.4375 -5.21875 L 2.988281 -5.019531 C 4.125 -6.246094 5.234375 -7.710938 6.101562 -9.175781 L 4.738281 -10.054688 C 4.410156 -9.417969 4.023438 -8.777344 3.640625 -8.164062 L 2.488281 -8.078125 C 3.257812 -9.089844 3.996094 -10.3125 4.578125 -11.507812 L 3.074219 -12.132812 C 2.503906 -10.625 1.535156 -9.03125 1.210938 -8.632812 C 0.910156 -8.222656 0.652344 -7.949219 0.355469 -7.878906 C 0.539062 -7.46875 0.78125 -6.742188 0.867188 -6.429688 C 1.09375 -6.527344 1.421875 -6.613281 2.632812 -6.757812 C 2.203125 -6.1875 1.835938 -5.773438 1.648438 -5.574219 C 1.167969 -5.050781 0.824219 -4.707031 0.457031 -4.636719 C 0.625 -4.222656 0.894531 -3.457031 0.980469 -3.15625 C 1.308594 -3.3125 1.820312 -3.441406 4.863281 -3.941406 C 4.9375 -3.699219 4.992188 -3.46875 5.035156 -3.269531 Z M 1.011719 -2.703125 C 0.925781 -1.566406 0.753906 -0.296875 0.425781 0.539062 C 0.78125 0.625 1.480469 0.851562 1.777344 1.011719 C 2.078125 0.15625 2.332031 -1.195312 2.417969 -2.476562 Z M 2.773438 -2.558594 C 2.929688 -1.621094 3.074219 -0.382812 3.101562 0.441406 L 4.464844 0.140625 C 4.421875 -0.667969 4.253906 -1.863281 4.082031 -2.816406 Z M 4.410156 -2.929688 C 4.652344 -2.132812 4.949219 -1.125 5.035156 -0.457031 L 6.34375 -0.910156 C 6.214844 -1.566406 5.917969 -2.546875 5.632812 -3.3125 Z M 8.007812 -6.628906 L 8.007812 -9.417969 C 8.5625 -9.5 9.117188 -9.585938 9.6875 -9.6875 C 9.699219 -8.648438 9.714844 -7.609375 9.757812 -6.628906 Z M 13.625 -5.0625 L 13.625 -6.628906 L 11.320312 -6.628906 C 11.292969 -7.679688 11.28125 -8.820312 11.308594 -10 C 12.089844 -10.15625 12.871094 -10.339844 13.542969 -10.539062 L 12.375 -11.90625 C 10.882812 -11.421875 8.546875 -10.9375 6.445312 -10.625 L 6.429688 -10.625 L 6.429688 -1.238281 C 6.429688 -0.570312 6.144531 -0.171875 5.875 0.0273438 C 6.117188 0.296875 6.484375 0.925781 6.613281 1.28125 C 6.914062 1.050781 7.410156 0.8125 10.085938 -0.0859375 C 10 -0.425781 9.914062 -1.09375 9.886719 -1.535156 L 8.007812 -0.980469 L 8.007812 -5.0625 L 9.855469 -5.0625 C 10.097656 -1.550781 10.710938 1.066406 12.175781 1.066406 C 13.269531 1.066406 13.738281 0.484375 13.925781 -1.804688 C 13.527344 -1.976562 12.988281 -2.289062 12.660156 -2.632812 C 12.628906 -1.210938 12.546875 -0.496094 12.347656 -0.496094 C 11.90625 -0.496094 11.5625 -2.375 11.394531 -5.0625 Z M 13.625 -5.0625 "/></g></g></g><g fill="#d40707" fill-opacity="1"><g transform="translate(280.138844, 228.17639)"><g><path d="M 20.8125 0 L 11.453125 0 C 10.367188 0 9.617188 -0.113281 9.203125 -0.34375 C 8.796875 -0.570312 8.476562 -1.039062 8.25 -1.75 C 7.65625 -3.519531 7.210938 -6.363281 6.921875 -10.28125 C 6.640625 -14.195312 6.5 -19.117188 6.5 -25.046875 C 6.5 -32.203125 6.703125 -39.003906 7.109375 -45.453125 C 7.523438 -51.910156 8.132812 -57.648438 8.9375 -62.671875 C 9.21875 -64.523438 9.535156 -65.664062 9.890625 -66.09375 C 10.253906 -66.519531 10.960938 -66.734375 12.015625 -66.734375 L 21.453125 -66.734375 C 22.140625 -66.734375 22.644531 -66.660156 22.96875 -66.515625 C 23.300781 -66.367188 23.46875 -66.140625 23.46875 -65.828125 C 23.46875 -65.398438 23.222656 -64.132812 22.734375 -62.03125 C 20.597656 -52.425781 19.53125 -43.273438 19.53125 -34.578125 C 19.53125 -24.835938 20.53125 -14.953125 22.53125 -4.921875 C 22.925781 -2.890625 23.125 -1.660156 23.125 -1.234375 C 23.125 -0.804688 22.945312 -0.492188 22.59375 -0.296875 C 22.238281 -0.0976562 21.644531 0 20.8125 0 Z M 20.8125 0 "/></g></g></g><g clip-path="url(#ce718de5d6)"><g clip-path="url(#81b261b99b)"><path fill="#ffffff" d="M 289.082031 163.167969 L 296.070312 163.167969 L 296.070312 182.929688 L 289.082031 182.929688 Z M 289.082031 163.167969 " fill-opacity="1" fill-rule="nonzero"/></g></g><g clip-path="url(#3821fc9e87)"><g clip-path="url(#b0b0ab39ae)"><path fill="#ffffff" d="M 289.125 205.570312 L 301.675781 205.570312 L 301.675781 227.140625 L 289.125 227.140625 Z M 289.125 205.570312 " fill-opacity="1" fill-rule="nonzero"/></g></g><g fill="#d40707" fill-opacity="1"><g transform="translate(66.113239, 228.374985)"><g><path d="M 24.21875 0 L 12.296875 0 C 11.117188 0 10.195312 -0.210938 9.53125 -0.640625 C 8.875 -1.078125 8.363281 -1.832031 8 -2.90625 C 7.394531 -4.800781 6.90625 -8.28125 6.53125 -13.34375 C 6.15625 -18.414062 5.96875 -24.457031 5.96875 -31.46875 C 5.96875 -39.238281 6.195312 -46.863281 6.65625 -54.34375 C 7.125 -61.832031 7.804688 -68.941406 8.703125 -75.671875 L 8.75 -76.0625 C 9.394531 -81.175781 10.539062 -83.734375 12.1875 -83.734375 C 12.226562 -83.734375 12.316406 -83.742188 12.453125 -83.765625 C 12.597656 -83.785156 12.78125 -83.8125 13 -83.84375 L 24.875 -83.84375 C 25.832031 -83.84375 26.507812 -83.71875 26.90625 -83.46875 C 27.300781 -83.21875 27.5 -82.785156 27.5 -82.171875 C 27.5 -81.390625 26.65625 -77.328125 24.96875 -69.984375 C 23.289062 -62.640625 22.453125 -56.320312 22.453125 -51.03125 C 22.453125 -49.695312 22.613281 -48.644531 22.9375 -47.875 C 23.257812 -47.113281 23.722656 -46.734375 24.328125 -46.734375 C 25.835938 -46.734375 28.289062 -49.03125 31.6875 -53.625 C 35.09375 -58.226562 38.425781 -63.96875 41.6875 -70.84375 C 43.257812 -74.101562 44.421875 -77.429688 45.171875 -80.828125 C 45.597656 -82.804688 46.566406 -83.8125 48.078125 -83.84375 L 57.84375 -83.84375 C 58.8125 -83.84375 59.554688 -83.679688 60.078125 -83.359375 C 60.597656 -83.035156 60.859375 -82.570312 60.859375 -81.96875 C 60.859375 -80.570312 60.25 -78.382812 59.03125 -75.40625 C 57.8125 -72.4375 56.179688 -69.234375 54.140625 -65.796875 C 52.640625 -63.253906 50.625 -60.175781 48.09375 -56.5625 C 45.570312 -52.945312 44.3125 -50.597656 44.3125 -49.515625 C 44.3125 -48.835938 45.921875 -46.507812 49.140625 -42.53125 C 52.367188 -38.5625 55.019531 -34.359375 57.09375 -29.921875 C 59.101562 -25.660156 60.671875 -21.144531 61.796875 -16.375 C 62.921875 -11.613281 63.484375 -7.175781 63.484375 -3.0625 C 63.484375 -1.84375 63.3125 -1.023438 62.96875 -0.609375 C 62.632812 -0.203125 62.035156 0 61.171875 0 L 46.9375 0 C 46.039062 0 45.457031 -0.164062 45.1875 -0.5 C 44.925781 -0.84375 44.796875 -1.484375 44.796875 -2.421875 L 44.796875 -6.0625 C 44.796875 -13.125 43.441406 -20.109375 40.734375 -27.015625 C 38.035156 -33.929688 35.828125 -37.390625 34.109375 -37.390625 C 33.535156 -37.390625 32.617188 -36.84375 31.359375 -35.75 C 30.109375 -34.65625 28.375 -32.890625 26.15625 -30.453125 C 25.332031 -29.484375 24.722656 -28.476562 24.328125 -27.4375 C 23.929688 -26.40625 23.734375 -25.171875 23.734375 -23.734375 C 23.734375 -19.585938 24.289062 -15 25.40625 -9.96875 C 26.519531 -4.9375 27.078125 -2.203125 27.078125 -1.765625 C 27.078125 -1.265625 26.789062 -0.84375 26.21875 -0.5 C 25.644531 -0.164062 24.976562 0 24.21875 0 Z M 24.21875 0 "/></g></g></g><g clip-path="url(#f701888887)"><g clip-path="url(#010cce62dd)"><path fill="#ffffff" d="M 73.027344 144.289062 L 91.984375 144.289062 L 91.984375 184.867188 L 73.027344 184.867188 Z M 73.027344 144.289062 " fill-opacity="1" fill-rule="nonzero"/></g></g><g clip-path="url(#0e6fa384e5)"><g clip-path="url(#7200cb39c5)"><path fill="#ffffff" d="M 112.929688 199.996094 L 130.179688 199.996094 L 130.179688 228.902344 L 112.929688 228.902344 Z M 112.929688 199.996094 " fill-opacity="1" fill-rule="nonzero"/></g></g><path stroke-linecap="butt" transform="matrix(0.75, 0, 0, 0.75, 75, 234.749985)" fill="none" stroke-linejoin="miter" d="M 0.000000566667 2.000021 L 305.000021 2.000021 " stroke="#d40707" stroke-width="4" stroke-opacity="1" stroke-miterlimit="4"/></svg>